<svg width="45" height="36" viewBox="0 0 45 36" fill="none" xmlns="http://www.w3.org/2000/svg">
<g clip-path="url(#clip0_23_2781)">
<path d="M41.1289 28.8624H3.66211V30.2726H41.1289V28.8624Z" fill="black"/>
<path d="M41.1291 17.3343H33.9238V18.7445H41.1291V17.3343Z" fill="black"/>
<path d="M41.1291 23.0983H33.9238V24.5085H41.1291V23.0983Z" fill="black"/>
<path d="M41.1291 11.5699H33.9238V12.9801H41.1291V11.5699Z" fill="black"/>
<path d="M3.49164 35.6051C3.03148 35.6112 2.57476 35.525 2.14843 35.3517C1.72211 35.1784 1.33483 34.9214 1.00941 34.596C0.683999 34.2706 0.427051 33.8833 0.253738 33.457C0.080424 33.0307 -0.00575351 32.5739 0.000297975 32.1138V4.44135C-0.00575351 3.98118 0.080424 3.52446 0.253738 3.09814C0.427051 2.67182 0.683999 2.28453 1.00941 1.95911C1.33483 1.6337 1.72211 1.37675 2.14843 1.20344C2.57476 1.03013 3.03148 0.943954 3.49164 0.950005H41.509C41.9691 0.943954 42.4258 1.03013 42.8522 1.20344C43.2785 1.37675 43.6658 1.6337 43.9912 1.95911C44.3166 2.28453 44.5736 2.67182 44.7469 3.09814C44.9202 3.52446 45.0064 3.98118 45.0003 4.44135V32.1138C45.0064 32.5739 44.9202 33.0307 44.7469 33.457C44.5736 33.8833 44.3166 34.2706 43.9912 34.596C43.6658 34.9214 43.2785 35.1784 42.8522 35.3517C42.4258 35.525 41.9691 35.6112 41.509 35.6051H3.49164ZM3.49164 34.1828H41.509C42.0456 34.1462 42.5509 33.9164 42.9312 33.5361C43.3116 33.1557 43.5414 32.6505 43.578 32.1138V7.60948H1.4226V32.1138C1.45905 32.6505 1.68874 33.1559 2.06915 33.5363C2.44955 33.9167 2.9549 34.1464 3.49164 34.1828Z" fill="black"/>
<path d="M3.06824 5.44506C2.97947 5.35877 2.90955 5.255 2.8629 5.14032C2.81625 5.02564 2.79388 4.90254 2.7972 4.77877C2.79404 4.65471 2.81602 4.53128 2.8618 4.41592C2.90758 4.30056 2.97623 4.19566 3.0636 4.10752C3.14996 4.01885 3.25372 3.94901 3.36839 3.90242C3.48306 3.85582 3.60616 3.83347 3.72989 3.83678C3.85396 3.83362 3.97737 3.8556 4.09273 3.90138C4.20808 3.94716 4.313 4.0158 4.40114 4.10317C4.48991 4.18947 4.55983 4.29323 4.60648 4.40791C4.65314 4.52259 4.6755 4.64569 4.67218 4.76946C4.67537 4.89356 4.65338 5.01702 4.60755 5.13239C4.56171 5.24775 4.49297 5.35264 4.40548 5.44071C4.31918 5.52949 4.21542 5.59941 4.10074 5.64606C3.98606 5.69271 3.86295 5.71508 3.73919 5.71176C3.61514 5.71494 3.49173 5.69295 3.37641 5.64711C3.26109 5.60128 3.15626 5.53254 3.06824 5.44506Z" fill="white"/>
<path d="M6.12879 5.44506C6.04002 5.35876 5.9701 5.25499 5.92344 5.14031C5.87679 5.02563 5.85442 4.90253 5.85774 4.77877C5.85459 4.6547 5.87657 4.53127 5.92235 4.41592C5.96813 4.30056 6.03675 4.19565 6.12413 4.10751C6.21057 4.01886 6.31441 3.94905 6.42913 3.90246C6.54385 3.85586 6.66696 3.8335 6.79074 3.83677C6.91476 3.8336 7.03814 3.85557 7.15344 3.90136C7.26875 3.94714 7.37361 4.01578 7.46169 4.10316C7.55046 4.18946 7.62038 4.29322 7.66703 4.4079C7.71368 4.52258 7.73605 4.64569 7.73273 4.76945C7.73589 4.89352 7.71391 5.01695 7.66813 5.1323C7.62235 5.24766 7.5537 5.35257 7.46633 5.44071C7.38001 5.52945 7.27625 5.59935 7.16157 5.646C7.0469 5.69265 6.9238 5.71504 6.80004 5.71176C6.67594 5.71494 6.5525 5.69296 6.43713 5.64712C6.32176 5.60128 6.21686 5.53254 6.12879 5.44506Z" fill="white"/>
<path d="M9.19129 5.44506C9.10252 5.35877 9.0326 5.255 8.98594 5.14032C8.93929 5.02564 8.91692 4.90254 8.92024 4.77878C8.91709 4.65471 8.93907 4.53128 8.98485 4.41592C9.03063 4.30057 9.09927 4.19566 9.18665 4.10752C9.27306 4.01884 9.37689 3.949 9.49161 3.90241C9.60633 3.85582 9.72946 3.83347 9.85324 3.83678C9.97726 3.83361 10.1006 3.85558 10.2159 3.90136C10.3313 3.94715 10.4361 4.01579 10.5242 4.10317C10.613 4.18947 10.6829 4.29323 10.7295 4.40791C10.7762 4.52259 10.7986 4.6457 10.7952 4.76946C10.7984 4.89353 10.7764 5.01695 10.7306 5.13231C10.6849 5.24767 10.6162 5.35257 10.5288 5.44072C10.4425 5.5295 10.3387 5.59942 10.2239 5.64607C10.1092 5.69272 9.98605 5.71509 9.86224 5.71176C9.73819 5.71494 9.61477 5.69295 9.49946 5.64712C9.38414 5.60128 9.2793 5.53254 9.19129 5.44506Z" fill="white"/>
<path d="M5.48777 12.1564H29.2478C29.5555 12.1564 29.8505 12.2786 30.0681 12.4961C30.2856 12.7137 30.4078 13.0087 30.4078 13.3164V22.795C30.4078 22.9473 30.3778 23.0981 30.3195 23.2388C30.2612 23.3796 30.1758 23.5074 30.068 23.6151C29.9603 23.7228 29.8325 23.8082 29.6917 23.8664C29.551 23.9247 29.4002 23.9547 29.2478 23.9546H5.48777C5.18021 23.9546 4.88525 23.8325 4.66778 23.615C4.4503 23.3975 4.32813 23.1025 4.32813 22.795V13.3164C4.32808 13.164 4.35805 13.0132 4.41631 12.8725C4.47457 12.7318 4.55998 12.6039 4.66767 12.4962C4.77535 12.3884 4.90321 12.303 5.04392 12.2447C5.18463 12.1864 5.33545 12.1564 5.48777 12.1564Z" fill="black"/>
<path d="M29.2483 12.7773C29.3912 12.7775 29.5282 12.8344 29.6293 12.9354C29.7303 13.0364 29.7872 13.1734 29.7873 13.3163V22.7947C29.7872 22.9376 29.7303 23.0746 29.6293 23.1756C29.5282 23.2767 29.3912 23.3335 29.2483 23.3337H5.48795C5.34505 23.3335 5.20804 23.2767 5.10699 23.1756C5.00595 23.0746 4.94911 22.9376 4.94895 22.7947V13.3163C4.94911 13.1734 5.00595 13.0364 5.10699 12.9354C5.20804 12.8344 5.34505 12.7775 5.48795 12.7773H29.2483ZM29.2483 11.5354H5.48795C5.01562 11.5354 4.56264 11.7231 4.22865 12.057C3.89467 12.391 3.70703 12.844 3.70703 13.3163V22.7947C3.70703 23.267 3.89467 23.72 4.22865 24.054C4.56264 24.3879 5.01562 24.5756 5.48795 24.5756H29.2483C29.7207 24.5756 30.1736 24.3879 30.5076 24.054C30.8416 23.72 31.0292 23.267 31.0292 22.7947V13.3163C31.0292 12.844 30.8416 12.391 30.5076 12.057C30.1736 11.7231 29.7207 11.5354 29.2483 11.5354Z" fill="black"/>
<path d="M13.015 17.9909C13.015 17.0862 13.0123 16.1814 13.015 15.2767C13.0178 14.5871 13.2796 14.3173 13.9741 14.3301C14.5922 14.3064 15.2112 14.3435 15.8221 14.4406C16.2735 14.5442 16.6763 14.7981 16.9643 15.1608C17.2524 15.5234 17.4086 15.9732 17.4074 16.4363C17.4356 17.4246 17.4301 18.4141 17.4176 19.403C17.4278 19.704 17.376 20.004 17.2657 20.2843C17.1554 20.5646 16.9888 20.8193 16.7762 21.0327C16.5636 21.2461 16.3096 21.4137 16.0297 21.5251C15.7498 21.6364 15.4501 21.6893 15.149 21.6804C14.7497 21.69 14.3495 21.6838 13.9499 21.6804C13.2904 21.6766 13.0185 21.4046 13.0154 20.7359C13.0119 19.8218 13.0147 18.9062 13.015 17.9909ZM14.5053 15.8303V20.2081C14.6721 20.2081 14.8276 20.2081 14.9829 20.2081C15.6988 20.2043 15.9562 19.9494 15.9572 19.2425C15.9572 18.5169 15.9326 17.7897 15.9627 17.0651C16.0146 15.8048 15.5529 15.7663 14.6224 15.8051C14.5825 15.8108 14.5431 15.8192 14.5044 15.8303H14.5053Z" fill="white"/>
<path d="M10.0802 20.223H8.63645C8.61347 20.5244 8.61004 20.8169 8.5644 21.1022C8.53563 21.2589 8.45406 21.4009 8.33326 21.5046C8.21246 21.6083 8.05975 21.6675 7.90059 21.6723C7.75255 21.6758 7.60687 21.6349 7.48227 21.5549C7.35766 21.4748 7.25985 21.3594 7.20141 21.2233C7.15501 21.0832 7.13204 20.9363 7.13341 20.7887C7.12844 19.4005 7.11727 18.012 7.13341 16.6239C7.11296 16.1304 7.25962 15.6444 7.54969 15.2446C7.83976 14.8449 8.25625 14.5547 8.73175 14.421C9.04253 14.3277 9.37033 14.3053 9.69091 14.3557C10.0115 14.406 10.3166 14.5278 10.5838 14.7119C10.851 14.8961 11.0734 15.1379 11.2346 15.4196C11.3957 15.7012 11.4915 16.0155 11.5149 16.3392C11.5711 17.8726 11.54 19.4098 11.5314 20.9451C11.5324 21.0406 11.5144 21.1353 11.4786 21.2237C11.4427 21.3122 11.3897 21.3926 11.3225 21.4604C11.2553 21.5282 11.1754 21.5819 11.0873 21.6186C10.9991 21.6552 10.9046 21.674 10.8092 21.6738C10.6174 21.6702 10.4345 21.5924 10.2988 21.4569C10.1632 21.3213 10.0852 21.1385 10.0814 20.9467C10.0681 20.7194 10.0802 20.489 10.0802 20.223ZM8.62309 18.7063H10.0774C10.0774 18.1974 10.0811 17.7149 10.0774 17.2321C10.0857 16.9491 10.0724 16.6658 10.0376 16.3848C10.0049 16.2166 9.91248 16.0659 9.77742 15.9604C9.64236 15.8549 9.47373 15.8017 9.30258 15.8107C9.13143 15.8196 8.96927 15.8901 8.84596 16.0091C8.72265 16.1281 8.64647 16.2877 8.63146 16.4584C8.60631 17.2017 8.62309 17.9465 8.62309 18.7075V18.7063Z" fill="white"/>
</g>
<defs>
<clipPath id="clip0_23_2781">
<rect width="45" height="34.6551" fill="white" transform="translate(0 0.949951)"/>
</clipPath>
</defs>
</svg>
