<svg width="75" height="50" viewBox="0 0 75 50" fill="none" xmlns="http://www.w3.org/2000/svg">
<path d="M5.11364 50C3.70739 50 2.50355 49.541 1.50213 48.623C0.50071 47.7051 0 46.6016 0 45.3125V9.375H5.11364V45.3125H64.7727V50H5.11364ZM15.3409 40.625C13.9347 40.625 12.7308 40.166 11.7294 39.248C10.728 38.3301 10.2273 37.2266 10.2273 35.9375V4.6875C10.2273 3.39844 10.728 2.29492 11.7294 1.37695C12.7308 0.458984 13.9347 0 15.3409 0H69.8864C71.2926 0 72.4965 0.458984 73.4979 1.37695C74.4993 2.29492 75 3.39844 75 4.6875V35.9375C75 37.2266 74.4993 38.3301 73.4979 39.248C72.4965 40.166 71.2926 40.625 69.8864 40.625H15.3409ZM23.8636 35.9375C23.8636 33.75 23.0398 31.901 21.392 30.3906C19.7443 28.8802 17.7273 28.125 15.3409 28.125V35.9375H23.8636ZM61.3636 35.9375H69.8864V28.125C67.5 28.125 65.483 28.8802 63.8352 30.3906C62.1875 31.901 61.3636 33.75 61.3636 35.9375ZM42.6136 29.6875C45.4545 29.6875 47.8693 28.776 49.858 26.9531C51.8466 25.1302 52.8409 22.9167 52.8409 20.3125C52.8409 17.7083 51.8466 15.4948 49.858 13.6719C47.8693 11.849 45.4545 10.9375 42.6136 10.9375C39.7727 10.9375 37.358 11.849 35.3693 13.6719C33.3807 15.4948 32.3864 17.7083 32.3864 20.3125C32.3864 22.9167 33.3807 25.1302 35.3693 26.9531C37.358 28.776 39.7727 29.6875 42.6136 29.6875ZM15.3409 12.5C17.7273 12.5 19.7443 11.7448 21.392 10.2344C23.0398 8.72396 23.8636 6.875 23.8636 4.6875H15.3409V12.5ZM69.8864 12.5V4.6875H61.3636C61.3636 6.875 62.1875 8.72396 63.8352 10.2344C65.483 11.7448 67.5 12.5 69.8864 12.5Z" fill="#67BFFF"/>
</svg>
