<svg width="35" height="36" viewBox="0 0 35 36" fill="none" xmlns="http://www.w3.org/2000/svg">
<path d="M24.8449 0H10.1726C3.79939 0 0 3.79939 0 10.1726V24.8274C0 31.2181 3.79939 35.0174 10.1726 35.0174H24.8274C31.2005 35.0174 34.9999 31.2181 34.9999 24.8449V10.1726C35.0174 3.79939 31.2181 0 24.8449 0ZM26.2631 26.7008H8.75436C8.0365 26.7008 7.44121 26.1055 7.44121 25.3876C7.44121 24.6698 8.0365 24.0745 8.75436 24.0745H26.2631C26.9809 24.0745 27.5762 24.6698 27.5762 25.3876C27.5762 26.1055 26.9809 26.7008 26.2631 26.7008ZM26.2631 18.8219H8.75436C8.0365 18.8219 7.44121 18.2266 7.44121 17.5087C7.44121 16.7909 8.0365 16.1956 8.75436 16.1956H26.2631C26.9809 16.1956 27.5762 16.7909 27.5762 17.5087C27.5762 18.2266 26.9809 18.8219 26.2631 18.8219ZM26.2631 10.943H8.75436C8.0365 10.943 7.44121 10.3477 7.44121 9.6298C7.44121 8.91194 8.0365 8.31664 8.75436 8.31664H26.2631C26.9809 8.31664 27.5762 8.91194 27.5762 9.6298C27.5762 10.3477 26.9809 10.943 26.2631 10.943Z" fill="black"/>
</svg>
