<svg width="35" height="31" viewBox="0 0 35 31" fill="none" xmlns="http://www.w3.org/2000/svg">
<g clip-path="url(#clip0_23_2802)">
<path d="M2.79982 30.908C2.44402 30.9125 2.09093 30.8457 1.76135 30.7115C1.43177 30.5774 1.13236 30.3787 0.880756 30.1271C0.62915 29.8755 0.430435 29.5761 0.296316 29.2465C0.162198 28.9169 0.0953858 28.5638 0.0998161 28.208V8.80804C0.0953858 8.45224 0.162198 8.09916 0.296316 7.76958C0.430435 7.43999 0.62915 7.14058 0.880756 6.88898C1.13236 6.63737 1.43177 6.43866 1.76135 6.30454C2.09093 6.17042 2.44402 6.10361 2.79982 6.10804H12.0998V3.40804C12.0954 3.05224 12.1622 2.69916 12.2963 2.36958C12.4304 2.03999 12.6291 1.74059 12.8808 1.48898C13.1324 1.23737 13.4318 1.03866 13.7614 0.90454C14.0909 0.770421 14.444 0.703609 14.7998 0.708039H20.1998C20.5556 0.703609 20.9087 0.770421 21.2383 0.90454C21.5679 1.03866 21.8673 1.23737 22.1189 1.48898C22.3705 1.74059 22.5692 2.03999 22.7033 2.36958C22.8374 2.69916 22.9042 3.05224 22.8998 3.40804V6.10804H32.1998C32.5556 6.10361 32.9087 6.17042 33.2383 6.30454C33.5679 6.43866 33.8673 6.63737 34.1189 6.88898C34.3705 7.14058 34.5692 7.43999 34.7033 7.76958C34.8374 8.09916 34.9042 8.45224 34.8998 8.80804V28.208C34.9042 28.5638 34.8374 28.9169 34.7033 29.2465C34.5692 29.5761 34.3705 29.8755 34.1189 30.1271C33.8673 30.3787 33.5679 30.5774 33.2383 30.7115C32.9087 30.8457 32.5556 30.9125 32.1998 30.908H2.79982ZM13.1998 6.10804H21.7998V3.40804C21.7715 2.99301 21.5939 2.60227 21.2997 2.30813C21.0056 2.01398 20.6148 1.83632 20.1998 1.80804H14.7998C14.3848 1.83632 13.9941 2.01398 13.6999 2.30813C13.4058 2.60227 13.2281 2.99301 13.1998 3.40804V6.10804Z" fill="black"/>
</g>
<defs>
<clipPath id="clip0_23_2802">
<rect width="34.8" height="30.2" fill="white" transform="translate(0.0996094 0.708038)"/>
</clipPath>
</defs>
</svg>
