<svg width="35" height="35" viewBox="0 0 35 35" fill="none" xmlns="http://www.w3.org/2000/svg">
<g opacity="0.6">
<path opacity="0.6" d="M25.0069 14.5833C25.3936 14.5833 25.7646 14.4296 26.038 14.1561C26.3115 13.8826 26.4652 13.5117 26.4652 13.1249C26.4652 12.7382 26.3115 12.3672 26.038 12.0937C25.7646 11.8203 25.3936 11.6666 25.0069 11.6666C24.6201 11.6666 24.2491 11.8203 23.9757 12.0937C23.7022 12.3672 23.5485 12.7382 23.5485 13.1249C23.5485 13.5117 23.7022 13.8826 23.9757 14.1561C24.2491 14.4296 24.6201 14.5833 25.0069 14.5833ZM25.0069 23.3333C25.3936 23.3333 25.7646 23.1796 26.038 22.9061C26.3115 22.6326 26.4652 22.2617 26.4652 21.8749C26.4652 21.4882 26.3115 21.1172 26.038 20.8437C25.7646 20.5703 25.3936 20.4166 25.0069 20.4166C24.6201 20.4166 24.2491 20.5703 23.9757 20.8437C23.7022 21.1172 23.5485 21.4882 23.5485 21.8749C23.5485 22.2617 23.7022 22.6326 23.9757 22.9061C24.2491 23.1796 24.6201 23.3333 25.0069 23.3333ZM28.8014 18.9583C29.1882 18.9583 29.5591 18.8046 29.8326 18.5311C30.1061 18.2576 30.2598 17.8867 30.2598 17.4999C30.2598 17.1132 30.1061 16.7422 29.8326 16.4687C29.5591 16.1953 29.1882 16.0416 28.8014 16.0416C28.4147 16.0416 28.0437 16.1953 27.7702 16.4687C27.4967 16.7422 27.3431 17.1132 27.3431 17.4999C27.3431 17.8867 27.4967 18.2576 27.7702 18.5311C28.0437 18.8046 28.4147 18.9583 28.8014 18.9583ZM9.91456 14.5833C10.3013 14.5833 10.6723 14.4296 10.9458 14.1561C11.2192 13.8826 11.3729 13.5117 11.3729 13.1249C11.3729 12.7382 11.2192 12.3672 10.9458 12.0937C10.6723 11.8203 10.3013 11.6666 9.91456 11.6666C9.52778 11.6666 9.15685 11.8203 8.88336 12.0937C8.60987 12.3672 8.45622 12.7382 8.45622 13.1249C8.45622 13.5117 8.60987 13.8826 8.88336 14.1561C9.15685 14.4296 9.52778 14.5833 9.91456 14.5833ZM9.91456 23.3333C10.3013 23.3333 10.6723 23.1796 10.9458 22.9061C11.2192 22.6326 11.3729 22.2617 11.3729 21.8749C11.3729 21.4882 11.2192 21.1172 10.9458 20.8437C10.6723 20.5703 10.3013 20.4166 9.91456 20.4166C9.52778 20.4166 9.15685 20.5703 8.88336 20.8437C8.60987 21.1172 8.45622 21.4882 8.45622 21.8749C8.45622 22.2617 8.60987 22.6326 8.88336 22.9061C9.15685 23.1796 9.52778 23.3333 9.91456 23.3333ZM6.12435 18.9583C6.51112 18.9583 6.88206 18.8046 7.15555 18.5311C7.42904 18.2576 7.58268 17.8867 7.58268 17.4999C7.58268 17.1132 7.42904 16.7422 7.15555 16.4687C6.88206 16.1953 6.51112 16.0416 6.12435 16.0416C5.73757 16.0416 5.36664 16.1953 5.09315 16.4687C4.81966 16.7422 4.66602 17.1132 4.66602 17.4999C4.66602 17.8867 4.81966 18.2576 5.09315 18.5311C5.36664 18.8046 5.73757 18.9583 6.12435 18.9583ZM23.1839 9.04161C23.5707 9.04161 23.9416 8.88796 24.2151 8.61447C24.4886 8.34098 24.6423 7.97005 24.6423 7.58327C24.6423 7.1965 24.4886 6.82557 24.2151 6.55208C23.9416 6.27858 23.5707 6.12494 23.1839 6.12494C22.7972 6.12494 22.4262 6.27858 22.1527 6.55208C21.8792 6.82557 21.7256 7.1965 21.7256 7.58327C21.7256 7.97005 21.8792 8.34098 22.1527 8.61447C22.4262 8.88796 22.7972 9.04161 23.1839 9.04161ZM11.8119 9.04161C12.1986 9.04161 12.5696 8.88796 12.843 8.61447C13.1165 8.34098 13.2702 7.97005 13.2702 7.58327C13.2702 7.1965 13.1165 6.82557 12.843 6.55208C12.5696 6.27858 12.1986 6.12494 11.8119 6.12494C11.4251 6.12494 11.0541 6.27858 10.7807 6.55208C10.5072 6.82557 10.3535 7.1965 10.3535 7.58327C10.3535 7.97005 10.5072 8.34098 10.7807 8.61447C11.0541 8.88796 11.4251 9.04161 11.8119 9.04161ZM17.5708 10.2083C17.9576 10.2083 18.3285 10.0546 18.602 9.78114C18.8755 9.50765 19.0291 9.13671 19.0291 8.74994C19.0291 8.36317 18.8755 7.99223 18.602 7.71874C18.3285 7.44525 17.9576 7.29161 17.5708 7.29161C17.184 7.29161 16.8131 7.44525 16.5396 7.71874C16.2661 7.99223 16.1125 8.36317 16.1125 8.74994C16.1125 9.13671 16.2661 9.50765 16.5396 9.78114C16.8131 10.0546 17.184 10.2083 17.5708 10.2083ZM23.1839 29.1666C23.5707 29.1666 23.9416 29.013 24.2151 28.7395C24.4886 28.466 24.6423 28.095 24.6423 27.7083C24.6423 27.3215 24.4886 26.9506 24.2151 26.6771C23.9416 26.4036 23.5707 26.2499 23.1839 26.2499C22.7972 26.2499 22.4262 26.4036 22.1527 26.6771C21.8792 26.9506 21.7256 27.3215 21.7256 27.7083C21.7256 28.095 21.8792 28.466 22.1527 28.7395C22.4262 29.013 22.7972 29.1666 23.1839 29.1666ZM11.8119 29.1666C12.1986 29.1666 12.5696 29.013 12.843 28.7395C13.1165 28.466 13.2702 28.095 13.2702 27.7083C13.2702 27.3215 13.1165 26.9506 12.843 26.6771C12.5696 26.4036 12.1986 26.2499 11.8119 26.2499C11.4251 26.2499 11.0541 26.4036 10.7807 26.6771C10.5072 26.9506 10.3535 27.3215 10.3535 27.7083C10.3535 28.095 10.5072 28.466 10.7807 28.7395C11.0541 29.013 11.4251 29.1666 11.8119 29.1666ZM17.5708 27.9999C17.9576 27.9999 18.3285 27.8463 18.602 27.5728C18.8755 27.2993 19.0291 26.9284 19.0291 26.5416C19.0291 26.1548 18.8755 25.7839 18.602 25.5104C18.3285 25.2369 17.9576 25.0833 17.5708 25.0833C17.184 25.0833 16.8131 25.2369 16.5396 25.5104C16.2661 25.7839 16.1125 26.1548 16.1125 26.5416C16.1125 26.9284 16.2661 27.2993 16.5396 27.5728C16.8131 27.8463 17.184 27.9999 17.5708 27.9999Z" fill="black"/>
</g>
<path d="M20.0514 14.9479C20.5349 14.9479 20.9986 14.7558 21.3404 14.4139C21.6823 14.0721 21.8743 13.6084 21.8743 13.1249C21.8743 12.6415 21.6823 12.1778 21.3404 11.836C20.9986 11.4941 20.5349 11.302 20.0514 11.302C19.568 11.302 19.1043 11.4941 18.7624 11.836C18.4206 12.1778 18.2285 12.6415 18.2285 13.1249C18.2285 13.6084 18.4206 14.0721 18.7624 14.4139C19.1043 14.7558 19.568 14.9479 20.0514 14.9479ZM14.9473 14.9479C15.4307 14.9479 15.8944 14.7558 16.2363 14.4139C16.5781 14.0721 16.7702 13.6084 16.7702 13.1249C16.7702 12.6415 16.5781 12.1778 16.2363 11.836C15.8944 11.4941 15.4307 11.302 14.9473 11.302C14.4638 11.302 14.0001 11.4941 13.6583 11.836C13.3164 12.1778 13.1243 12.6415 13.1243 13.1249C13.1243 13.6084 13.3164 14.0721 13.6583 14.4139C14.0001 14.7558 14.4638 14.9479 14.9473 14.9479ZM22.6035 19.3229C23.087 19.3229 23.5506 19.1308 23.8925 18.7889C24.2344 18.4471 24.4264 17.9834 24.4264 17.4999C24.4264 17.0165 24.2344 16.5528 23.8925 16.211C23.5506 15.8691 23.087 15.677 22.6035 15.677C22.12 15.677 21.6564 15.8691 21.3145 16.211C20.9727 16.5528 20.7806 17.0165 20.7806 17.4999C20.7806 17.9834 20.9727 18.4471 21.3145 18.7889C21.6564 19.1308 22.12 19.3229 22.6035 19.3229ZM12.3952 19.3229C12.8786 19.3229 13.3423 19.1308 13.6842 18.7889C14.026 18.4471 14.2181 17.9834 14.2181 17.4999C14.2181 17.0165 14.026 16.5528 13.6842 16.211C13.3423 15.8691 12.8786 15.677 12.3952 15.677C11.9117 15.677 11.448 15.8691 11.1062 16.211C10.7643 16.5528 10.5723 17.0165 10.5723 17.4999C10.5723 17.9834 10.7643 18.4471 11.1062 18.7889C11.448 19.1308 11.9117 19.3229 12.3952 19.3229ZM14.9473 23.6979C15.4307 23.6979 15.8944 23.5058 16.2363 23.1639C16.5781 22.8221 16.7702 22.3584 16.7702 21.8749C16.7702 21.3915 16.5781 20.9278 16.2363 20.586C15.8944 20.2441 15.4307 20.052 14.9473 20.052C14.4638 20.052 14.0001 20.2441 13.6583 20.586C13.3164 20.9278 13.1243 21.3915 13.1243 21.8749C13.1243 22.3584 13.3164 22.8221 13.6583 23.1639C14.0001 23.5058 14.4638 23.6979 14.9473 23.6979ZM20.0514 23.6979C20.5349 23.6979 20.9986 23.5058 21.3404 23.1639C21.6823 22.8221 21.8743 22.3584 21.8743 21.8749C21.8743 21.3915 21.6823 20.9278 21.3404 20.586C20.9986 20.2441 20.5349 20.052 20.0514 20.052C19.568 20.052 19.1043 20.2441 18.7624 20.586C18.4206 20.9278 18.2285 21.3915 18.2285 21.8749C18.2285 22.3584 18.4206 22.8221 18.7624 23.1639C19.1043 23.5058 19.568 23.6979 20.0514 23.6979Z" fill="black"/>
<path opacity="0.4" d="M17.4995 4.85326C16.7849 4.85326 16.2161 4.28451 16.2161 3.56993C16.2161 2.85534 16.7849 2.30118 17.4995 2.30118C18.2141 2.30118 18.7828 2.86993 18.7828 3.58451C18.7828 4.29909 18.2141 4.85326 17.4995 4.85326ZM25.1557 5.25284C24.5432 5.25284 24.0474 4.75701 24.0474 4.15909C24.0474 3.56118 24.5432 3.06534 25.1411 3.06534C25.7391 3.06534 26.2495 3.56118 26.2495 4.15909C26.2495 4.75701 25.7682 5.25284 25.1557 5.25284ZM9.84323 5.25284C9.55315 5.25284 9.27495 5.13761 9.06983 4.93249C8.86471 4.72737 8.74948 4.44918 8.74948 4.15909C8.74948 3.86901 8.86471 3.59081 9.06983 3.3857C9.27495 3.18058 9.55315 3.06534 9.84323 3.06534H9.85781C10.4557 3.06534 10.9516 3.56118 10.9516 4.15909C10.9516 4.75701 10.4557 5.25284 9.84323 5.25284ZM17.4995 32.6389C16.7849 32.6389 16.2161 32.0701 16.2161 31.3556C16.2161 30.641 16.7849 30.0722 17.4995 30.0722C18.2141 30.0722 18.7828 30.641 18.7828 31.3556C18.7828 32.0701 18.2141 32.6389 17.4995 32.6389ZM25.1557 31.8674C24.5432 31.8674 24.0474 31.3716 24.0474 30.7737C24.0474 30.1758 24.5432 29.6799 25.1411 29.6799C25.7391 29.6799 26.2495 30.1758 26.2495 30.7737C26.2495 31.3716 25.7682 31.8674 25.1557 31.8674ZM9.84323 31.8674C9.55315 31.8674 9.27495 31.7522 9.06983 31.5471C8.86471 31.342 8.74948 31.0638 8.74948 30.7737C8.74948 30.4836 8.86471 30.2054 9.06983 30.0003C9.27495 29.7952 9.55315 29.6799 9.84323 29.6799H9.85781C10.4557 29.6799 10.9516 30.1758 10.9516 30.7737C10.9516 31.3716 10.4557 31.8674 9.84323 31.8674ZM2.2599 18.7847C1.92205 18.7847 1.59782 18.6515 1.35756 18.414C1.1173 18.1765 0.980402 17.8538 0.976562 17.516V17.5014C0.976562 16.8014 1.54531 16.2181 2.2599 16.2181C2.97448 16.2181 3.52865 16.7868 3.52865 17.5014C3.52865 18.216 2.9599 18.7847 2.2599 18.7847ZM5.46823 25.8824C4.87031 25.8824 4.37448 25.3866 4.37448 24.7887V24.7741C4.37448 24.1762 4.87031 23.6803 5.46823 23.6803C6.06615 23.6803 6.56198 24.1762 6.56198 24.7741C6.56198 25.372 6.06615 25.8824 5.46823 25.8824ZM5.46823 11.3195C4.87031 11.3195 4.37448 10.8237 4.37448 10.2258C4.37448 9.62784 4.87031 9.13201 5.46823 9.13201C6.06615 9.13201 6.56198 9.61326 6.56198 10.2112V10.2258C6.56198 10.8237 6.06615 11.3195 5.46823 11.3195ZM32.812 18.7847C32.4741 18.7847 32.1499 18.6515 31.9096 18.414C31.6694 18.1765 31.5325 17.8538 31.5287 17.516V17.5014C31.5287 16.8014 32.0974 16.2181 32.812 16.2181C33.5266 16.2181 34.0953 16.7868 34.0953 17.5014C34.0953 18.216 33.512 18.7847 32.812 18.7847ZM29.6036 25.8824C29.0057 25.8824 28.5099 25.4012 28.5099 24.7887V24.7741C28.5099 24.1762 29.0057 23.6803 29.6036 23.6803C30.2016 23.6803 30.6974 24.1762 30.6974 24.7741C30.6974 25.372 30.2016 25.8824 29.6036 25.8824ZM29.6036 11.3195C29.0057 11.3195 28.5099 10.8237 28.5099 10.2258C28.5099 9.62784 29.0057 9.13201 29.6036 9.13201C30.2016 9.13201 30.6974 9.61326 30.6974 10.2112V10.2258C30.6974 10.8237 30.2016 11.3195 29.6036 11.3195Z" fill="black"/>
</svg>
