<svg width="50" height="58" viewBox="0 0 50 58" fill="none" xmlns="http://www.w3.org/2000/svg">
<g clip-path="url(#clip0_23_2688)">
<path d="M12.6534 57.3042C12.3562 57.3053 12.069 57.197 11.8464 57C11.6238 56.803 11.4815 56.5311 11.4464 56.2359C11.0885 53.0789 9.36012 50.5309 7.37448 48.1206C6.02028 46.4771 4.55622 44.9234 3.13766 43.3329C1.13542 41.0885 -0.124325 38.6077 0.00974589 35.4565C0.156618 32.0042 0.0315432 28.542 0.0519566 25.0844C0.0616443 23.437 1.15912 22.3919 2.72507 22.4959C3.78276 22.5661 4.49118 23.136 4.85619 24.1205C5.04602 24.6658 5.13592 25.241 5.12157 25.8182C5.11534 28.4116 5.14769 31.0055 5.11292 33.5983C5.08351 35.7857 5.93032 37.4757 7.68777 38.7837C9.63293 40.2315 11.684 41.5115 13.731 42.801C13.877 42.893 14.0331 42.9693 14.1862 43.0494C14.6761 43.3059 15.1478 43.3357 15.4722 42.8141C15.8035 42.2811 15.5353 41.8652 15.0871 41.5686C13.7421 40.678 12.3846 39.8061 11.0297 38.9302C10.182 38.3827 9.32033 37.8589 8.48666 37.2932C7.12883 36.3723 6.74357 35.0742 7.44195 33.881C8.19967 32.5861 9.717 32.122 11.1235 32.8449C12.4803 33.5425 13.7945 34.3235 15.1196 35.083C16.169 35.6848 17.2172 36.2907 18.2451 36.9281C20.8708 38.5567 22.147 41.0437 22.7964 43.976C23.4428 46.8945 23.0613 49.7607 22.5633 52.6342C22.3508 53.8591 22.1261 55.082 21.9031 56.3053C21.8521 56.5856 21.7044 56.8391 21.4856 57.0217C21.2669 57.2043 20.9911 57.3043 20.7062 57.3043L12.6534 57.3042Z" fill="#67BFFF"/>
<path d="M29.3183 57.3042C29.0333 57.3046 28.7573 57.2047 28.5384 57.0221C28.3196 56.8395 28.1719 56.5858 28.1212 56.3053C27.715 54.0324 27.2419 51.7708 26.9734 49.4745C26.6274 46.7163 26.9874 43.9154 28.0198 41.3344C28.7869 39.4137 30.1843 37.8109 31.9825 36.7891C34.1954 35.4948 36.425 34.2288 38.6531 32.9604C39.528 32.4625 40.4474 32.3376 41.3847 32.7798C43.1548 33.6148 43.4454 35.8788 41.8575 37.0135C40.1715 38.2182 38.3909 39.2903 36.6531 40.4225C36.0497 40.8156 35.4387 41.1989 34.854 41.6182C34.4388 41.9158 34.2411 42.3353 34.5281 42.8204C34.8184 43.3108 35.2893 43.3496 35.7319 43.0851C38.3788 41.5055 41.0642 39.9712 43.3397 37.8631C44.3732 36.9055 44.8579 35.6276 44.8697 34.2111C44.8929 31.4448 44.8925 28.6784 44.891 25.9119C44.8759 25.335 44.9538 24.7595 45.1219 24.2075C45.5247 22.9872 46.5766 22.3433 47.884 22.5037C48.4472 22.5825 48.964 22.8591 49.3418 23.2842C49.7196 23.7092 49.9338 24.2548 49.9461 24.8234C49.9715 29.0305 50.0789 33.2432 49.8978 37.4427C49.795 39.8236 48.3171 41.7156 46.7566 43.4617C44.5694 45.9075 42.2218 48.222 40.4997 51.0513C39.5136 52.6711 38.7658 54.3669 38.5587 56.2358C38.5237 56.531 38.3814 56.803 38.1588 57C37.9362 57.197 37.6489 57.3053 37.3517 57.3042H29.3183Z" fill="#67BFFF"/>
<path d="M25.1524 0.0101968C25.7622 -0.0558872 26.3047 0.209314 26.8339 0.514304C31.2993 3.0887 35.7642 5.66372 40.2289 8.23939C41.042 8.70872 41.0513 8.79747 40.226 9.27269C35.3347 12.089 30.442 14.9026 25.5477 17.7134C25.1379 17.9501 24.8298 17.9181 24.4381 17.6917C19.5524 14.8661 14.6624 12.0474 9.76815 9.23566C8.96926 8.77481 8.96978 8.6909 9.72801 8.26032C14.3102 5.65813 18.8941 3.05923 23.4799 0.463616C23.9817 0.153612 24.5627 -0.00391361 25.1524 0.0101968Z" fill="#67BFFF"/>
<path d="M26.8668 28.2712C26.8668 26.1953 26.8817 24.1194 26.8576 22.0446C26.8509 21.4672 27.0111 21.0868 27.5397 20.7851C32.0205 18.229 36.4923 15.6571 40.955 13.0695C41.572 12.7124 41.8116 12.7849 41.8078 13.5485C41.7893 17.3246 41.8167 21.1013 41.7874 24.8774C41.7776 26.1595 41.2783 27.1833 40.0826 27.8666C35.954 30.2257 31.8554 32.6373 27.7397 35.0189C26.9043 35.5033 26.8704 35.4732 26.8682 34.4971C26.8633 32.4222 26.8666 30.3466 26.8668 28.2712Z" fill="#67BFFF"/>
<path d="M23.147 28.2398C23.147 30.3726 23.1322 32.5056 23.1557 34.6383C23.1635 35.3429 22.9756 35.4299 22.3772 35.0798C18.2235 32.6499 14.061 30.2354 9.88976 27.8362C8.75612 27.1878 8.25167 26.2043 8.23835 24.9952C8.19648 21.1624 8.22849 17.3286 8.21292 13.4954C8.2098 12.7467 8.48884 12.7422 9.03758 13.0583C13.2998 15.5137 17.5661 17.9622 21.8364 20.4036C22.2388 20.6332 22.5727 20.9659 22.8037 21.3675C23.0346 21.7691 23.1542 22.2251 23.1502 22.6884C23.133 24.5387 23.147 26.3894 23.147 28.2398Z" fill="#67BFFF"/>
</g>
<defs>
<clipPath id="clip0_23_2688">
<rect width="50" height="57.304" fill="white"/>
</clipPath>
</defs>
</svg>
