<svg xmlns="http://www.w3.org/2000/svg" width="383.273" height="384" viewBox="0 0 383.273 384">
  <path d="M203.624,384H179.671c-1.206-.229-2.405-.5-3.618-.679-8.007-1.168-16.12-1.835-24.007-3.549-46.563-10.113-84.521-34.225-113.178-72.245C7.271,265.606-5.007,218.1,1.835,166.047c5.513-41.935,23.525-78.118,53.1-108.308,28.694-29.292,63.292-47.66,103.7-54.788C165.6,1.722,172.657.972,179.671,0h23.953c6.4.827,12.844,1.434,19.2,2.518,36.385,6.2,68.553,21.434,96.034,46.123,33.024,29.671,53.689,66.427,61.47,110.279,1.239,6.981,1.974,14.051,2.941,21.08v24a21.327,21.327,0,0,0-.622,2.893c-2.257,29.621-10.737,57.354-26.173,82.692-30.415,49.925-74.344,80.622-131.837,91.475C217.7,382.371,210.633,383.036,203.624,384ZM242.56,87.572c-13.647,0-26.886-.7-40.025.155-22.371,1.452-36.764,14.908-39.733,37.125-1.315,9.842-.687,19.945-.929,29.93-.035,1.437,0,2.877,0,4.777H140.2v39.257h21.721V309.831h46.253V198.626h31.136c1.345-13.161,2.657-26,4.026-39.383H208.165c0-8.372-.168-16.242.053-24.1.174-6.154,3.784-9.418,10.175-9.532,6.733-.119,13.469-.02,20.2-.043,1.306,0,2.612-.134,3.963-.208Z"/>
</svg>
