<svg width="81" height="70" viewBox="0 0 81 70" fill="none" xmlns="http://www.w3.org/2000/svg">
<path d="M8.9315 0.0964355C3.77098 0.768692 0.470794 6.00825 0.298858 13.8122C0.251596 15.4859 0.283376 15.7043 0.596283 16.2046C1.30032 17.3308 1.48774 17.3772 6.08519 17.4245L10.1823 17.4717V40.023C10.1823 54.7239 10.2451 62.9345 10.3388 63.5913C10.8546 66.8287 13.4352 69.3776 16.6727 69.847C18.1427 70.0507 57.2569 70.0507 58.7424 69.847C61.9489 69.3931 64.6224 66.7195 65.0763 63.513C65.1545 62.9027 65.2327 58.5399 65.2327 53.6606V44.9024L62.7303 47.4049L60.2433 49.8918L60.1969 56.7106C60.1496 63.4666 60.1496 63.5139 59.8058 63.9987C59.0398 65.0621 60.588 64.9994 37.7075 64.9994C14.827 64.9994 16.3753 65.0621 15.6093 63.9987L15.2654 63.5139L15.1717 36.7709C15.109 16.2991 15.0462 9.82425 14.8906 9.18377C14.484 7.40085 13.6235 6.07181 12.4973 5.47696C12.2627 5.35147 11.6996 5.19584 11.2465 5.11761C10.7462 5.03938 19.035 4.97664 32.1722 4.96116C53.3944 4.94568 53.9575 4.94568 54.9272 5.25858C56.7101 5.80617 58.0082 6.77585 59.0088 8.29231C60.1977 10.138 60.2287 10.3409 60.2287 18.1293V25.0418L62.7466 22.5394L65.2645 20.0369L65.1863 15.3449C65.1236 11.2006 65.0771 10.5128 64.7797 9.40215C63.6226 4.99212 60.2605 1.62918 55.7714 0.378372L54.5206 0.0190201L32.1567 0.00353241C19.8629 -0.0135803 9.40005 0.0336914 8.9315 0.0964355Z" fill="#3C3C3C"/>
<path d="M72.0663 17.628C71.2376 17.8154 70.3771 18.4567 68.9071 19.9422L67.6562 21.2093L72.0663 25.6038L76.4608 30.0139L77.9781 28.4811C79.6983 26.7291 80.1367 26.0104 80.1367 24.8843C80.1522 23.4143 79.9175 23.0386 77.4468 20.537C76.1952 19.2544 74.9134 18.0818 74.616 17.9254C73.9119 17.5807 72.8322 17.4397 72.0663 17.628Z" fill="#3C3C3C"/>
<path d="M29.4326 20.1299C29.0887 20.2391 28.2755 20.9122 27.0556 22.1003L25.2099 23.8987L24.5532 23.3356C24.1775 23.0227 23.6144 22.6943 23.2861 22.6006C21.5186 22.1312 19.8767 23.8204 20.3615 25.6188C20.6117 26.5885 23.5672 29.544 24.5369 29.7942C25.8195 30.1536 26.1943 29.9197 29.1188 27.0416C32.2463 23.9761 32.5755 23.523 32.591 22.5061C32.6227 20.8185 31.059 19.6451 29.4326 20.1299Z" fill="#3C3C3C"/>
<path d="M36.9724 22.6322C36.2846 22.8351 35.5651 23.6019 35.3614 24.3524C35.0175 25.6032 35.8153 26.964 37.0816 27.3079C37.4882 27.4171 40.3818 27.4643 45.5578 27.4334C53.3307 27.3861 53.4244 27.3861 53.9712 27.0422C54.7062 26.5884 55.1283 25.8379 55.1283 24.9619C55.1283 24.0859 54.7062 23.3354 53.9712 22.8815C53.4236 22.5377 53.3454 22.5377 45.4478 22.5059C40.8511 22.4912 37.2698 22.5385 36.9724 22.6322Z" fill="#3C3C3C"/>
<path d="M55.7554 33.1261C50.2347 38.6622 45.59 43.3852 45.4181 43.6516C44.9805 44.2929 40.3668 54.4429 40.2568 55.0059C40.1313 55.6317 40.7416 56.8043 41.3674 57.1327C42.3526 57.6485 42.7902 57.5239 48.1862 55.0687C50.986 53.7861 53.5504 52.5508 53.8943 52.3161C54.2382 52.0814 59.0548 47.3739 64.5918 41.8532L74.6635 31.8133L70.2999 27.4497C67.9067 25.0573 65.9054 23.0862 65.8581 23.0862C65.8116 23.0862 61.2606 27.6054 55.7554 33.1261ZM49.8281 47.9525C50.9388 49.0631 51.8148 50.0165 51.7675 50.0638C51.7202 50.1111 50.5949 50.6423 49.2805 51.2364L46.8718 52.347L46.1213 51.5803L45.3554 50.8298L46.2468 48.8749C46.7317 47.8115 47.232 46.7009 47.3412 46.4197C47.4667 46.1541 47.6231 45.9194 47.685 45.9194C47.7486 45.9194 48.7175 46.8263 49.8281 47.9525Z" fill="#3C3C3C"/>
<path d="M29.4326 32.6411C29.0887 32.7503 28.2755 33.4234 27.0556 34.6114L25.2099 36.4107L24.5532 35.8476C24.1775 35.5347 23.6144 35.2063 23.2861 35.1126C21.5186 34.6432 19.8767 36.3324 20.3615 38.1308C20.6117 39.1005 23.5672 42.056 24.5369 42.307C25.8349 42.6664 26.2261 42.4325 29.1351 39.5389C32.2634 36.4579 32.5755 36.0358 32.591 35.0189C32.6227 33.3297 31.059 32.1563 29.4326 32.6411Z" fill="#3C3C3C"/>
<path d="M36.9725 35.1435C36.2848 35.3464 35.5652 36.1132 35.3615 36.8637C35.0177 38.099 35.8154 39.4753 37.0507 39.8192C37.3791 39.8974 39.3185 39.9756 41.4608 39.9756H45.2922L47.7947 37.4732L50.2971 34.9716L43.885 34.9871C40.3501 34.9871 37.2536 35.0653 36.9725 35.1435Z" fill="#3C3C3C"/>
<path d="M29.4328 45.1528C29.0889 45.262 28.2757 45.935 27.0559 47.1231L25.2102 48.9215L24.5534 48.3584C24.1778 48.0455 23.6147 47.7171 23.2863 47.6234C21.5344 47.1541 19.8769 48.8433 20.3463 50.6262C20.4873 51.111 20.8784 51.6423 21.9418 52.7375C22.724 53.5507 23.6155 54.364 23.9121 54.5514C24.6316 54.989 25.7578 54.989 26.4773 54.5514C27.1031 54.1603 32.1072 49.1089 32.3891 48.5931C32.6866 48.0146 32.6548 46.8412 32.2954 46.2626C31.7478 45.3092 30.5117 44.8399 29.4328 45.1528Z" fill="#3C3C3C"/>
</svg>
