<svg width="230" height="100" viewBox="0 0 230 100" fill="none" xmlns="http://www.w3.org/2000/svg">
<path d="M19.5095 31.3961C18.8257 31.3961 18.2126 31.3194 17.6703 31.1662C17.128 31.0129 16.6623 30.7948 16.2733 30.5119C15.896 30.2289 15.5954 29.8929 15.3714 29.5039C15.1592 29.103 15.0354 28.6668 15 28.1952H17.6173C17.6998 28.6432 17.9002 28.9851 18.2185 29.2209C18.5486 29.4567 18.9848 29.5746 19.5272 29.5746C20.0223 29.5746 20.4055 29.4803 20.6766 29.2916C20.9478 29.103 21.0834 28.8378 21.0834 28.4959C21.0834 28.2836 21.0185 28.1127 20.8888 27.983C20.7592 27.8533 20.5823 27.7472 20.3583 27.6647C20.1343 27.5822 19.8749 27.5173 19.5802 27.4702C19.2973 27.4112 18.9907 27.3523 18.6606 27.2933C18.2362 27.2108 17.8236 27.1165 17.4227 27.0104C17.0219 26.9043 16.6623 26.7451 16.344 26.5329C16.0257 26.3207 15.7663 26.0437 15.5659 25.7018C15.3773 25.3599 15.2829 24.9119 15.2829 24.3578C15.2829 23.8744 15.3832 23.45 15.5836 23.0845C15.7958 22.719 16.0787 22.4125 16.4324 22.1649C16.7861 21.9173 17.2046 21.7346 17.688 21.6167C18.1714 21.487 18.6901 21.4222 19.2442 21.4222C20.5528 21.4222 21.5432 21.6815 22.2152 22.2003C22.8872 22.7072 23.288 23.3733 23.4177 24.1986H20.8358C20.6589 23.5266 20.1284 23.1906 19.2442 23.1906C18.8198 23.1906 18.4779 23.2731 18.2185 23.4382C17.9709 23.6032 17.8472 23.839 17.8472 24.1455C17.8472 24.3224 17.9061 24.4698 18.024 24.5877C18.1419 24.6938 18.3069 24.7822 18.5192 24.8529C18.7314 24.9237 18.9789 24.9826 19.2619 25.0298C19.5448 25.0769 19.8455 25.13 20.1638 25.1889C20.5882 25.2597 21.0126 25.354 21.437 25.4719C21.8615 25.578 22.2446 25.743 22.5865 25.967C22.9284 26.191 23.2055 26.4917 23.4177 26.8689C23.6417 27.2344 23.7537 27.7119 23.7537 28.3013C23.7537 28.8083 23.6476 29.2563 23.4354 29.6453C23.2232 30.0344 22.9284 30.3586 22.5512 30.618C22.1739 30.8773 21.7259 31.0719 21.2072 31.2015C20.6884 31.3312 20.1225 31.3961 19.5095 31.3961Z" fill="#3C3C3C"/>
<path d="M24.4268 21.6874H27.0971V23.0314H27.1501C27.7868 21.9586 28.7417 21.4222 30.015 21.4222C30.6398 21.4222 31.1998 21.546 31.695 21.7935C32.2019 22.0411 32.6264 22.3889 32.9682 22.8369C33.3219 23.2731 33.5931 23.7978 33.7817 24.4108C33.9704 25.0121 34.0647 25.6723 34.0647 26.3914C34.0647 27.1578 33.9645 27.8533 33.764 28.4782C33.5754 29.0912 33.2984 29.6159 32.9329 30.0521C32.5792 30.4765 32.143 30.8066 31.6242 31.0424C31.1173 31.2782 30.5514 31.3961 29.9266 31.3961C29.3017 31.3961 28.7476 31.2664 28.2643 31.007C27.7927 30.7476 27.4213 30.3881 27.1501 29.9283H27.1148C27.1384 30.1051 27.156 30.3645 27.1678 30.7064C27.1914 31.0483 27.2032 31.4727 27.2032 31.9796V34.2255H24.4268V21.6874ZM29.2723 29.2386C29.9089 29.2386 30.3981 28.991 30.74 28.4959C31.0819 28.0007 31.2529 27.3287 31.2529 26.4799C31.2529 25.631 31.0878 24.9472 30.7577 24.4285C30.4276 23.898 29.9207 23.6327 29.2369 23.6327C28.8832 23.6327 28.5708 23.7093 28.2996 23.8626C28.0403 24.0041 27.8221 24.2045 27.6453 24.4639C27.4685 24.7232 27.3329 25.0239 27.2386 25.3658C27.156 25.7077 27.1148 26.079 27.1148 26.4799C27.1148 27.2933 27.2975 27.9594 27.663 28.4782C28.0285 28.9851 28.5649 29.2386 29.2723 29.2386Z" fill="#3C3C3C"/>
<path d="M39.2819 31.3784C38.5156 31.3784 37.8259 31.2546 37.2129 31.007C36.5998 30.7476 36.0752 30.394 35.639 29.946C35.2146 29.498 34.8844 28.9733 34.6487 28.3721C34.4247 27.7708 34.3127 27.1165 34.3127 26.4091C34.3127 25.7018 34.4306 25.0474 34.6663 24.4462C34.9021 23.8331 35.2322 23.3026 35.6567 22.8546C36.0811 22.4066 36.588 22.0588 37.1775 21.8112C37.767 21.5519 38.4213 21.4222 39.1404 21.4222C39.8124 21.4222 40.4137 21.5283 40.9442 21.7405C41.4865 21.9527 41.964 22.2474 42.3767 22.6247C42.9072 23.1434 43.2962 23.786 43.5438 24.5523C43.7914 25.3186 43.9093 26.1674 43.8975 27.0988H37.036C37.1303 27.8062 37.3661 28.3603 37.7434 28.7611C38.1207 29.162 38.6453 29.3624 39.3173 29.3624C39.7535 29.3624 40.1072 29.2858 40.3783 29.1325C40.6613 28.9674 40.8794 28.7375 41.0327 28.4428H43.7207C43.6028 28.8554 43.4141 29.2445 43.1548 29.61C42.9072 29.9636 42.5948 30.2761 42.2175 30.5472C41.852 30.8066 41.4217 31.007 40.9266 31.1485C40.4314 31.3018 39.8832 31.3784 39.2819 31.3784ZM39.1404 23.3851C38.5038 23.3851 38.0204 23.5738 37.6903 23.951C37.3602 24.3283 37.148 24.8411 37.0537 25.4895H41.068C41.0209 24.8293 40.8263 24.3165 40.4844 23.951C40.1425 23.5738 39.6945 23.3851 39.1404 23.3851Z" fill="#3C3C3C"/>
<path d="M49.0914 31.3961C48.3369 31.3961 47.6531 31.2723 47.04 31.0247C46.4388 30.7653 45.92 30.4116 45.4838 29.9636C45.0594 29.5156 44.7293 28.991 44.4935 28.3898C44.2577 27.7767 44.1398 27.1165 44.1398 26.4091C44.1398 25.7018 44.2518 25.0474 44.4758 24.4462C44.7116 23.8331 45.0417 23.3026 45.4661 22.8546C45.8906 22.4066 46.4034 22.0588 47.0047 21.8112C47.6059 21.5519 48.2779 21.4222 49.0207 21.4222C49.6455 21.4222 50.2114 21.5106 50.7183 21.6874C51.2253 21.8525 51.6615 22.0883 52.027 22.3948C52.4042 22.7013 52.7108 23.0727 52.9466 23.5089C53.1823 23.9333 53.3415 24.399 53.424 24.906H50.736C50.6417 24.4698 50.4531 24.1279 50.1701 23.8803C49.8872 23.6209 49.5158 23.4912 49.056 23.4912C48.3487 23.4912 47.8181 23.7565 47.4645 24.287C47.1226 24.8175 46.9516 25.5249 46.9516 26.4091C46.9516 27.2698 47.1226 27.9653 47.4645 28.4959C47.8181 29.0264 48.3487 29.2916 49.056 29.2916C49.5748 29.2916 49.9815 29.1443 50.2762 28.8495C50.5828 28.5548 50.7655 28.1363 50.8244 27.594H53.4948C53.4712 28.1245 53.3474 28.6255 53.1234 29.0971C52.9112 29.5569 52.6164 29.9578 52.2392 30.2996C51.8619 30.6415 51.4021 30.9068 50.8598 31.0954C50.3293 31.2959 49.7398 31.3961 49.0914 31.3961Z" fill="#3C3C3C"/>
<path d="M57.9892 31.3961C57.3054 31.3961 56.6923 31.3194 56.15 31.1662C55.6077 31.0129 55.142 30.7948 54.753 30.5119C54.3757 30.2289 54.0751 29.8929 53.8511 29.5039C53.6389 29.103 53.5151 28.6668 53.4797 28.1952H56.097C56.1795 28.6432 56.3799 28.9851 56.6982 29.2209C57.0283 29.4567 57.4645 29.5746 58.0069 29.5746C58.502 29.5746 58.8852 29.4803 59.1563 29.2916C59.4275 29.103 59.5631 28.8378 59.5631 28.4959C59.5631 28.2836 59.4982 28.1127 59.3685 27.983C59.2389 27.8533 59.062 27.7472 58.838 27.6647C58.614 27.5822 58.3546 27.5173 58.0599 27.4702C57.777 27.4112 57.4704 27.3523 57.1403 27.2933C56.7159 27.2108 56.3033 27.1165 55.9024 27.0104C55.5016 26.9043 55.142 26.7451 54.8237 26.5329C54.5054 26.3207 54.246 26.0437 54.0456 25.7018C53.857 25.3599 53.7626 24.9119 53.7626 24.3578C53.7626 23.8744 53.8629 23.45 54.0633 23.0845C54.2755 22.719 54.5584 22.4125 54.9121 22.1649C55.2658 21.9173 55.6843 21.7346 56.1677 21.6167C56.6511 21.487 57.1698 21.4222 57.7239 21.4222C59.0325 21.4222 60.0229 21.6815 60.6949 22.2003C61.3669 22.7072 61.7677 23.3733 61.8974 24.1986H59.3155C59.1386 23.5266 58.6081 23.1906 57.7239 23.1906C57.2995 23.1906 56.9576 23.2731 56.6982 23.4382C56.4506 23.6032 56.3269 23.839 56.3269 24.1455C56.3269 24.3224 56.3858 24.4698 56.5037 24.5877C56.6216 24.6938 56.7866 24.7822 56.9989 24.8529C57.2111 24.9237 57.4586 24.9826 57.7416 25.0298C58.0245 25.0769 58.3252 25.13 58.6435 25.1889C59.0679 25.2597 59.4923 25.354 59.9167 25.4719C60.3412 25.578 60.7243 25.743 61.0662 25.967C61.4081 26.191 61.6852 26.4917 61.8974 26.8689C62.1214 27.2344 62.2334 27.7119 62.2334 28.3013C62.2334 28.8083 62.1273 29.2563 61.9151 29.6453C61.7029 30.0344 61.4081 30.3586 61.0309 30.618C60.6536 30.8773 60.2056 31.0719 59.6869 31.2015C59.1681 31.3312 58.6022 31.3961 57.9892 31.3961Z" fill="#3C3C3C"/>
<path d="M15.0531 43.7927H16.4678V40.7864H19.1912V43.7927H21.0303V45.5611H19.1912V50.2297C19.1912 50.5834 19.2796 50.8251 19.4564 50.9548C19.645 51.0727 19.9044 51.1316 20.2345 51.1316C20.3288 51.1316 20.4349 51.1316 20.5528 51.1316C20.6707 51.1198 20.7768 51.1081 20.8712 51.0963H21.0126V53.1653C20.8594 53.1889 20.6472 53.2184 20.376 53.2537C20.1048 53.2891 19.7806 53.3068 19.4034 53.3068C18.9672 53.3068 18.5663 53.2714 18.2008 53.2007C17.8472 53.1182 17.5406 52.9826 17.2813 52.7939C17.0219 52.5935 16.8215 52.34 16.68 52.0335C16.5385 51.7152 16.4678 51.3144 16.4678 50.831V45.5611H15.0531V43.7927Z" fill="#3C3C3C"/>
<path d="M21.7496 40.0436H24.5613V42.4664H21.7496V40.0436ZM21.7672 43.7927H24.5437V53.2007H21.7672V43.7927Z" fill="#3C3C3C"/>
<path d="M25.6709 43.7927H28.3412V45.2605H28.3943C28.7008 44.6946 29.078 44.2643 29.526 43.9695C29.9858 43.6748 30.5517 43.5274 31.2237 43.5274C32.4616 43.5274 33.3223 44.1228 33.8056 45.3135H33.841C34.23 44.6769 34.6721 44.223 35.1673 43.9518C35.6743 43.6689 36.2284 43.5274 36.8296 43.5274C37.8789 43.5274 38.6688 43.8457 39.1993 44.4824C39.7298 45.1072 39.9951 45.9443 39.9951 46.9935V53.2007H37.2364V47.4533C37.2364 46.9346 37.1126 46.5337 36.865 46.2508C36.6292 45.9561 36.2873 45.8087 35.8393 45.8087C35.3441 45.8087 34.9492 45.9973 34.6545 46.3746C34.3715 46.7518 34.23 47.2411 34.23 47.8424V53.2007H31.4536V47.4533C31.4536 46.9346 31.3357 46.5337 31.0999 46.2508C30.8759 45.9561 30.534 45.8087 30.0743 45.8087C29.5791 45.8087 29.1842 45.9973 28.8894 46.3746C28.5947 46.7518 28.4473 47.2411 28.4473 47.8424V53.2007H25.6709V43.7927Z" fill="#3C3C3C"/>
<path d="M45.5861 53.4836C44.8197 53.4836 44.1301 53.3598 43.517 53.1123C42.904 52.8529 42.3793 52.4992 41.9431 52.0512C41.5187 51.6032 41.1886 51.0786 40.9528 50.4773C40.7288 49.8761 40.6168 49.2217 40.6168 48.5144C40.6168 47.807 40.7347 47.1527 40.9705 46.5514C41.2063 45.9384 41.5364 45.4078 41.9608 44.9598C42.3852 44.5118 42.8922 44.1641 43.4816 43.9165C44.0711 43.6571 44.7254 43.5274 45.4446 43.5274C46.1166 43.5274 46.7178 43.6335 47.2484 43.8457C47.7907 44.058 48.2682 44.3527 48.6808 44.7299C49.2113 45.2487 49.6004 45.8912 49.8479 46.6575C50.0955 47.4238 50.2134 48.2727 50.2016 49.2041H43.3402C43.4345 49.9114 43.6703 50.4655 44.0475 50.8664C44.4248 51.2672 44.9494 51.4676 45.6214 51.4676C46.0576 51.4676 46.4113 51.391 46.6825 51.2377C46.9654 51.0727 47.1835 50.8428 47.3368 50.5481H50.0248C49.9069 50.9607 49.7183 51.3497 49.4589 51.7152C49.2113 52.0689 48.8989 52.3813 48.5216 52.6525C48.1562 52.9118 47.7258 53.1123 47.2307 53.2537C46.7355 53.407 46.1873 53.4836 45.5861 53.4836ZM45.4446 45.4904C44.808 45.4904 44.3246 45.679 43.9945 46.0563C43.6644 46.4335 43.4522 46.9464 43.3578 47.5948H47.3722C47.325 46.9346 47.1305 46.4217 46.7886 46.0563C46.4467 45.679 45.9987 45.4904 45.4446 45.4904Z" fill="#3C3C3C"/>
<path d="M50.1475 43.7927H51.5622V42.9969C51.5622 42.0066 51.8275 41.2697 52.358 40.7864C52.6645 40.5152 53.0536 40.3207 53.5252 40.2028C54.0085 40.0849 54.5508 40.0318 55.1521 40.0436C55.3407 40.0436 55.5294 40.0495 55.718 40.0613C55.9066 40.0731 56.1012 40.0908 56.3016 40.1144V42.095C55.9479 42.0832 55.6473 42.0832 55.3997 42.095C55.1521 42.1068 54.9458 42.154 54.7807 42.2365C54.6275 42.3072 54.5155 42.4192 54.4447 42.5725C54.374 42.7257 54.3386 42.9321 54.3386 43.1914V43.7927H56.3016V45.5965H54.3386V53.2007H51.5622V45.5965H50.1475V43.7927Z" fill="#3C3C3C"/>
<path d="M59.6533 45.4727H59.7063C60.0129 44.8125 60.3783 44.3409 60.8028 44.058C61.2272 43.775 61.7341 43.6335 62.3236 43.6335C62.6065 43.6335 62.8011 43.6571 62.9072 43.7043V46.127H62.8364C62.636 46.0916 62.4415 46.0739 62.2529 46.0739C61.4983 46.0622 60.8912 46.2921 60.4314 46.7636C59.9834 47.2234 59.7594 47.9131 59.7594 48.8327V53.2007H56.983V43.7927H59.6533V45.4727Z" fill="#3C3C3C"/>
<path d="M69.3865 53.2007C69.3158 53.0946 69.2509 52.9472 69.192 52.7586C69.133 52.5582 69.0918 52.3224 69.0682 52.0512H69.0328C68.7263 52.4874 68.3549 52.8293 67.9187 53.0769C67.4943 53.3245 66.9166 53.4483 66.1857 53.4483C65.7259 53.4483 65.2956 53.3834 64.8947 53.2537C64.5057 53.1358 64.1638 52.959 63.869 52.7232C63.5861 52.4874 63.3621 52.1927 63.197 51.839C63.0438 51.4735 62.9671 51.0609 62.9671 50.6011C62.9671 50.0824 63.0614 49.6521 63.2501 49.3102C63.4505 48.9683 63.7158 48.6912 64.0459 48.479C64.376 48.2668 64.765 48.1076 65.213 48.0015C65.661 47.8836 66.1444 47.7952 66.6631 47.7363C67.5002 47.6184 68.1014 47.4769 68.4669 47.3118C68.8442 47.1468 69.0328 46.8874 69.0328 46.5337C69.0328 46.1918 68.9208 45.9207 68.6968 45.7203C68.4728 45.5081 68.1191 45.4019 67.6358 45.4019C67.1052 45.4019 66.7044 45.5139 66.4332 45.7379C66.1739 45.9619 66.0265 46.2626 65.9911 46.6398H63.4269C63.4387 46.239 63.533 45.8499 63.7099 45.4727C63.8867 45.0954 64.1461 44.7653 64.488 44.4824C64.8299 44.1876 65.2602 43.9577 65.7789 43.7927C66.2977 43.6158 66.9048 43.5274 67.6004 43.5274C68.2017 43.5274 68.7204 43.5746 69.1566 43.6689C69.5928 43.7514 69.976 43.8929 70.3061 44.0933C70.8012 44.3763 71.1608 44.7594 71.3848 45.2428C71.6206 45.7144 71.7385 46.2685 71.7385 46.9051V51.7329C71.7385 52.452 71.8564 52.8883 72.0922 53.0415V53.2007H69.3865ZM67.0522 51.6268C67.677 51.6268 68.1722 51.4558 68.5377 51.1139C68.9149 50.772 69.1035 50.3417 69.1035 49.823V48.6028C68.9031 48.7325 68.6556 48.8386 68.3608 48.9211C68.0779 48.9918 67.7831 49.0626 67.4766 49.1333C66.8636 49.263 66.4097 49.4222 66.1149 49.6108C65.8202 49.7994 65.6728 50.1001 65.6728 50.5127C65.6728 50.9253 65.8084 51.2142 66.0796 51.3792C66.3507 51.5443 66.6749 51.6268 67.0522 51.6268Z" fill="#3C3C3C"/>
<path d="M72.907 43.7927H75.5773V45.2605H75.6304C75.9369 44.6946 76.3142 44.2643 76.7622 43.9695C77.222 43.6748 77.7879 43.5274 78.4599 43.5274C79.6978 43.5274 80.5584 44.1228 81.0418 45.3135H81.0771C81.4662 44.6769 81.9083 44.223 82.4035 43.9518C82.9104 43.6689 83.4645 43.5274 84.0658 43.5274C85.115 43.5274 85.9049 43.8457 86.4354 44.4824C86.966 45.1072 87.2312 45.9443 87.2312 46.9935V53.2007H84.4725V47.4533C84.4725 46.9346 84.3487 46.5337 84.1011 46.2508C83.8653 45.9561 83.5234 45.8087 83.0754 45.8087C82.5803 45.8087 82.1853 45.9973 81.8906 46.3746C81.6077 46.7518 81.4662 47.2411 81.4662 47.8424V53.2007H78.6898V47.4533C78.6898 46.9346 78.5719 46.5337 78.3361 46.2508C78.1121 45.9561 77.7702 45.8087 77.3104 45.8087C76.8152 45.8087 76.4203 45.9973 76.1256 46.3746C75.8308 46.7518 75.6834 47.2411 75.6834 47.8424V53.2007H72.907V43.7927Z" fill="#3C3C3C"/>
<path d="M92.8222 53.4836C92.0559 53.4836 91.3662 53.3598 90.7532 53.1123C90.1401 52.8529 89.6155 52.4992 89.1793 52.0512C88.7548 51.6032 88.4247 51.0786 88.1889 50.4773C87.9649 49.8761 87.8529 49.2217 87.8529 48.5144C87.8529 47.807 87.9708 47.1527 88.2066 46.5514C88.4424 45.9384 88.7725 45.4078 89.1969 44.9598C89.6214 44.5118 90.1283 44.1641 90.7178 43.9165C91.3073 43.6571 91.9616 43.5274 92.6807 43.5274C93.3527 43.5274 93.954 43.6335 94.4845 43.8457C95.0268 44.058 95.5043 44.3527 95.9169 44.7299C96.4475 45.2487 96.8365 45.8912 97.0841 46.6575C97.3317 47.4238 97.4496 48.2727 97.4378 49.2041H90.5763C90.6706 49.9114 90.9064 50.4655 91.2837 50.8664C91.6609 51.2672 92.1856 51.4676 92.8576 51.4676C93.2938 51.4676 93.6475 51.391 93.9186 51.2377C94.2016 51.0727 94.4197 50.8428 94.5729 50.5481H97.2609C97.143 50.9607 96.9544 51.3497 96.695 51.7152C96.4475 52.0689 96.135 52.3813 95.7578 52.6525C95.3923 52.9118 94.962 53.1123 94.4668 53.2537C93.9717 53.407 93.4235 53.4836 92.8222 53.4836ZM92.6807 45.4904C92.0441 45.4904 91.5607 45.679 91.2306 46.0563C90.9005 46.4335 90.6883 46.9464 90.594 47.5948H94.6083C94.5611 46.9346 94.3666 46.4217 94.0247 46.0563C93.6828 45.679 93.2348 45.4904 92.6807 45.4904Z" fill="#3C3C3C"/>
<path d="M21.1718 75.6065C20.5352 75.6065 19.9634 75.471 19.4564 75.1998C18.9613 74.9287 18.5781 74.5042 18.3069 73.9266H18.2716V75.3059H15.6013V62.1489H18.3777V65.0314C18.3777 65.4322 18.3659 65.8272 18.3423 66.2162C18.3305 66.5935 18.3128 66.9236 18.2893 67.2066H18.3423C18.6606 66.7232 19.0438 66.34 19.4918 66.0571C19.9398 65.7741 20.4939 65.6327 21.1541 65.6327C21.7672 65.6327 22.3213 65.7565 22.8164 66.004C23.3116 66.2516 23.736 66.5994 24.0897 67.0474C24.4434 67.4836 24.7145 68.0082 24.9031 68.6213C25.1036 69.2226 25.2038 69.8828 25.2038 70.6019C25.2038 71.38 25.1095 72.0815 24.9208 72.7063C24.7322 73.3194 24.461 73.844 24.1074 74.2802C23.7537 74.7047 23.3293 75.0348 22.8341 75.2706C22.3389 75.4946 21.7848 75.6065 21.1718 75.6065ZM20.429 73.3783C21.0775 73.3783 21.5608 73.1249 21.8792 72.6179C22.2093 72.111 22.3743 71.4331 22.3743 70.5842C22.3743 69.7354 22.2093 69.0516 21.8792 68.5329C21.5608 68.0023 21.0716 67.7371 20.4114 67.7371C20.0459 67.7371 19.7276 67.8137 19.4564 67.967C19.197 68.1085 18.9789 68.3089 18.8021 68.5682C18.6253 68.8158 18.4956 69.1165 18.413 69.4701C18.3305 69.8238 18.2893 70.2011 18.2893 70.6019C18.2893 71.4272 18.4779 72.0992 18.8552 72.6179C19.2324 73.1249 19.757 73.3783 20.429 73.3783Z" fill="#3C3C3C"/>
<path d="M31.9962 75.3059V73.9619H31.9431C31.6012 74.516 31.2063 74.9228 30.7583 75.1821C30.3103 75.4415 29.7621 75.5712 29.1136 75.5712C28.0408 75.5712 27.2214 75.2588 26.6555 74.6339C26.0896 73.9973 25.8067 73.1602 25.8067 72.1228V65.8979H28.5831V71.5922C28.5831 72.1228 28.7069 72.5295 28.9545 72.8124C29.2139 73.0954 29.5911 73.2369 30.0863 73.2369C30.6522 73.2369 31.0943 73.0482 31.4126 72.671C31.7309 72.2937 31.8901 71.8103 31.8901 71.2209V65.8979H34.6311V75.3059H31.9962Z" fill="#3C3C3C"/>
<path d="M39.3463 75.6065C38.7332 75.6065 38.1791 75.4946 37.684 75.2706C37.1888 75.0348 36.7644 74.7047 36.4107 74.2802C36.057 73.844 35.7859 73.3194 35.5973 72.7063C35.4086 72.0815 35.3143 71.38 35.3143 70.6019C35.3143 69.8828 35.4086 69.2226 35.5973 68.6213C35.7977 68.0082 36.0747 67.4836 36.4284 67.0474C36.7821 66.5994 37.2065 66.2516 37.7017 66.004C38.2086 65.7565 38.7686 65.6327 39.3817 65.6327C40.0301 65.6327 40.5783 65.7741 41.0263 66.0571C41.4743 66.3282 41.8575 66.7114 42.1758 67.2066H42.2111C42.1876 66.9118 42.1699 66.5758 42.1581 66.1986C42.1463 65.8213 42.1404 65.4322 42.1404 65.0314V62.1489H44.9168V75.3059H42.2465V73.9266H42.2111C41.94 74.5042 41.5509 74.9287 41.044 75.1998C40.5488 75.471 39.9829 75.6065 39.3463 75.6065ZM40.089 73.3783C40.761 73.3783 41.2857 73.1249 41.6629 72.6179C42.0402 72.0992 42.2288 71.4272 42.2288 70.6019C42.2288 70.1893 42.1817 69.8061 42.0874 69.4524C42.0048 69.0988 41.8751 68.7981 41.6983 68.5506C41.5215 68.2912 41.2975 68.0908 41.0263 67.9493C40.7669 67.8078 40.4604 67.7371 40.1067 67.7371C39.4465 67.7371 38.9514 68.0023 38.6212 68.5329C38.3029 69.0516 38.1438 69.7354 38.1438 70.5842C38.1438 71.4331 38.3029 72.111 38.6212 72.6179C38.9514 73.1249 39.4406 73.3783 40.089 73.3783Z" fill="#3C3C3C"/>
<path d="M50.4178 78.5775C49.121 78.5775 48.0776 78.3181 47.2877 77.7994C46.4979 77.2924 46.0322 76.5733 45.8907 75.6419H48.5964C48.6907 75.9249 48.8734 76.1548 49.1446 76.3316C49.4275 76.5084 49.8402 76.5969 50.3825 76.5969C51.0427 76.5969 51.532 76.4377 51.8503 76.1194C52.1804 75.8011 52.3454 75.3531 52.3454 74.7754V74.5809C52.3454 74.0739 52.3631 73.6613 52.3985 73.343H52.3277C51.7736 74.2626 50.9248 74.7223 49.7812 74.7223C49.2389 74.7223 48.7202 74.628 48.225 74.4394C47.7299 74.239 47.2936 73.9501 46.9164 73.5729C46.5391 73.1838 46.2385 72.7122 46.0145 72.1581C45.7905 71.604 45.6785 70.9733 45.6785 70.2659C45.6785 69.5821 45.7728 68.9573 45.9614 68.3914C46.1619 67.8137 46.4389 67.3245 46.7926 66.9236C47.1463 66.511 47.5648 66.1927 48.0482 65.9687C48.5315 65.7447 49.0621 65.6327 49.6397 65.6327C50.2764 65.6327 50.8187 65.7447 51.2667 65.9687C51.7147 66.1927 52.0743 66.5699 52.3454 67.1005H52.3808V65.8979H55.0334V74.4748C55.0334 75.1821 54.9214 75.7834 54.6974 76.2785C54.4852 76.7855 54.1905 77.2099 53.8132 77.5518C53.4006 77.9055 52.9054 78.1649 52.3277 78.3299C51.7501 78.495 51.1134 78.5775 50.4178 78.5775ZM50.4002 72.6356C50.7538 72.6356 51.0545 72.5767 51.3021 72.4588C51.5614 72.3291 51.7736 72.1522 51.9387 71.9282C52.1155 71.7042 52.2393 71.4449 52.3101 71.1501C52.3926 70.8554 52.4338 70.5312 52.4338 70.1775C52.4338 69.4819 52.2629 68.9042 51.921 68.4445C51.5791 67.9729 51.0663 67.7371 50.3825 67.7371C49.7694 67.7371 49.2861 67.9611 48.9324 68.4091C48.5787 68.8453 48.4019 69.4407 48.4019 70.1952C48.4019 70.9379 48.5787 71.5333 48.9324 71.9813C49.2861 72.4175 49.7753 72.6356 50.4002 72.6356Z" fill="#3C3C3C"/>
<path d="M60.715 75.5889C59.9487 75.5889 59.259 75.4651 58.646 75.2175C58.0329 74.9581 57.5083 74.6045 57.0721 74.1564C56.6477 73.7085 56.3176 73.1838 56.0818 72.5826C55.8578 71.9813 55.7458 71.327 55.7458 70.6196C55.7458 69.9122 55.8637 69.2579 56.0994 68.6567C56.3352 68.0436 56.6653 67.5131 57.0898 67.0651C57.5142 66.6171 58.0211 66.2693 58.6106 66.0217C59.2001 65.7624 59.8544 65.6327 60.5736 65.6327C61.2456 65.6327 61.8468 65.7388 62.3773 65.951C62.9197 66.1632 63.3971 66.4579 63.8098 66.8352C64.3403 67.3539 64.7293 67.9965 64.9769 68.7628C65.2245 69.5291 65.3424 70.3779 65.3306 71.3093H58.4691C58.5634 72.0167 58.7992 72.5708 59.1765 72.9716C59.5538 73.3724 60.0784 73.5729 60.7504 73.5729C61.1866 73.5729 61.5403 73.4962 61.8114 73.343C62.0944 73.1779 62.3125 72.948 62.4658 72.6533H65.1538C65.0359 73.0659 64.8472 73.455 64.5879 73.8204C64.3403 74.1741 64.0279 74.4865 63.6506 74.7577C63.2851 75.0171 62.8548 75.2175 62.3597 75.359C61.8645 75.5122 61.3163 75.5889 60.715 75.5889ZM60.5736 67.5956C59.9369 67.5956 59.4536 67.7842 59.1234 68.1615C58.7933 68.5388 58.5811 69.0516 58.4868 69.7H62.5011C62.454 69.0398 62.2594 68.527 61.9175 68.1615C61.5757 67.7842 61.1277 67.5956 60.5736 67.5956Z" fill="#3C3C3C"/>
<path d="M65.2941 65.8979H66.7089V62.8916H69.4322V65.8979H71.2714V67.6663H69.4322V72.335C69.4322 72.6887 69.5206 72.9303 69.6975 73.06C69.8861 73.1779 70.1455 73.2369 70.4756 73.2369C70.5699 73.2369 70.676 73.2369 70.7939 73.2369C70.9118 73.2251 71.0179 73.2133 71.1122 73.2015H71.2537V75.2706C71.1004 75.2941 70.8882 75.3236 70.6171 75.359C70.3459 75.3943 70.0217 75.412 69.6444 75.412C69.2082 75.412 68.8074 75.3767 68.4419 75.3059C68.0882 75.2234 67.7817 75.0878 67.5223 74.8992C67.263 74.6988 67.0625 74.4453 66.9211 74.1388C66.7796 73.8204 66.7089 73.4196 66.7089 72.9362V67.6663H65.2941V65.8979Z" fill="#3C3C3C"/>
<path d="M142.932 15.0964C137.771 15.7687 134.471 21.0083 134.299 28.8122C134.252 30.4859 134.283 30.7043 134.596 31.2046C135.3 32.3308 135.488 32.3772 140.085 32.4245L144.182 32.4717V55.023C144.182 69.7239 144.245 77.9345 144.339 78.5913C144.855 81.8287 147.435 84.3776 150.673 84.847C152.143 85.0507 191.257 85.0507 192.742 84.847C195.949 84.3931 198.622 81.7195 199.076 78.513C199.155 77.9027 199.233 73.5399 199.233 68.6606V59.9024L196.73 62.4049L194.243 64.8918L194.197 71.7106C194.15 78.4666 194.15 78.5139 193.806 78.9987C193.04 80.0621 194.588 79.9994 171.708 79.9994C148.827 79.9994 150.375 80.0621 149.609 78.9987L149.265 78.5139L149.172 51.7709C149.109 31.2991 149.046 24.8242 148.891 24.1838C148.484 22.4009 147.623 21.0718 146.497 20.477C146.263 20.3515 145.7 20.1958 145.247 20.1176C144.746 20.0394 153.035 19.9766 166.172 19.9612C187.394 19.9457 187.958 19.9457 188.927 20.2586C190.71 20.8062 192.008 21.7759 193.009 23.2923C194.198 25.138 194.229 25.3409 194.229 33.1293V40.0418L196.747 37.5394L199.265 35.0369L199.186 30.3449C199.124 26.2006 199.077 25.5128 198.78 24.4022C197.623 19.9921 194.26 16.6292 189.771 15.3784L188.521 15.019L166.157 15.0035C153.863 14.9864 143.4 15.0337 142.932 15.0964Z" fill="#3C3C3C"/>
<path d="M206.066 32.628C205.238 32.8154 204.377 33.4567 202.907 34.9422L201.656 36.2093L206.066 40.6038L210.461 45.0139L211.978 43.4811C213.698 41.7291 214.137 41.0104 214.137 39.8843C214.152 38.4143 213.917 38.0386 211.447 35.537C210.195 34.2544 208.913 33.0818 208.616 32.9254C207.912 32.5807 206.832 32.4397 206.066 32.628Z" fill="#3C3C3C"/>
<path d="M163.433 35.1299C163.089 35.2391 162.275 35.9122 161.056 37.1003L159.21 38.8987L158.553 38.3356C158.178 38.0227 157.614 37.6943 157.286 37.6006C155.519 37.1312 153.877 38.8204 154.362 40.6188C154.612 41.5885 157.567 44.544 158.537 44.7942C159.819 45.1536 160.194 44.9197 163.119 42.0416C166.246 38.9761 166.575 38.523 166.591 37.5061C166.623 35.8185 165.059 34.6451 163.433 35.1299Z" fill="#3C3C3C"/>
<path d="M170.972 37.6322C170.285 37.8351 169.565 38.6019 169.361 39.3524C169.018 40.6032 169.815 41.964 171.082 42.3079C171.488 42.4171 174.382 42.4643 179.558 42.4334C187.331 42.3861 187.424 42.3861 187.971 42.0422C188.706 41.5884 189.128 40.8379 189.128 39.9619C189.128 39.0859 188.706 38.3354 187.971 37.8815C187.424 37.5377 187.345 37.5377 179.448 37.5059C174.851 37.4912 171.27 37.5385 170.972 37.6322Z" fill="#3C3C3C"/>
<path d="M189.755 48.1261C184.235 53.6622 179.59 58.3852 179.418 58.6516C178.981 59.2929 174.367 69.4429 174.257 70.0059C174.131 70.6317 174.742 71.8043 175.367 72.1327C176.353 72.6485 176.79 72.5239 182.186 70.0687C184.986 68.7861 187.55 67.5508 187.894 67.3161C188.238 67.0814 193.055 62.3739 198.592 56.8532L208.663 46.8133L204.3 42.4497C201.907 40.0573 199.905 38.0862 199.858 38.0862C199.812 38.0862 195.261 42.6054 189.755 48.1261ZM183.828 62.9525C184.939 64.0631 185.815 65.0165 185.767 65.0638C185.72 65.1111 184.595 65.6423 183.281 66.2364L180.872 67.347L180.121 66.5803L179.355 65.8298L180.247 63.8749C180.732 62.8115 181.232 61.7009 181.341 61.4197C181.467 61.1541 181.623 60.9194 181.685 60.9194C181.749 60.9194 182.717 61.8263 183.828 62.9525Z" fill="#3C3C3C"/>
<path d="M163.433 47.6411C163.089 47.7503 162.275 48.4234 161.056 49.6114L159.21 51.4107L158.553 50.8476C158.178 50.5347 157.614 50.2063 157.286 50.1126C155.519 49.6432 153.877 51.3324 154.362 53.1308C154.612 54.1005 157.567 57.056 158.537 57.307C159.835 57.6664 160.226 57.4325 163.135 54.5389C166.263 51.4579 166.575 51.0358 166.591 50.0189C166.623 48.3297 165.059 47.1563 163.433 47.6411Z" fill="#3C3C3C"/>
<path d="M170.973 50.1435C170.285 50.3464 169.565 51.1132 169.362 51.8637C169.018 53.099 169.815 54.4753 171.051 54.8192C171.379 54.8974 173.318 54.9756 175.461 54.9756H179.292L181.795 52.4732L184.297 49.9716L177.885 49.9871C174.35 49.9871 171.254 50.0653 170.973 50.1435Z" fill="#3C3C3C"/>
<path d="M163.433 60.1528C163.089 60.262 162.276 60.935 161.056 62.1231L159.21 63.9215L158.553 63.3584C158.178 63.0455 157.615 62.7171 157.286 62.6234C155.534 62.1541 153.877 63.8433 154.346 65.6262C154.487 66.111 154.878 66.6423 155.942 67.7375C156.724 68.5507 157.616 69.364 157.912 69.5514C158.632 69.989 159.758 69.989 160.477 69.5514C161.103 69.1603 166.107 64.1089 166.389 63.5931C166.687 63.0146 166.655 61.8412 166.295 61.2626C165.748 60.3092 164.512 59.8399 163.433 60.1528Z" fill="#3C3C3C"/>
<rect x="2.5" y="2.5" width="224.137" height="94.9998" rx="7.5" stroke="#3C3C3C" stroke-width="5"/>
</svg>
