<svg width="45" height="45" viewBox="0 0 45 45" fill="none" xmlns="http://www.w3.org/2000/svg">
<path d="M40.5719 10.8291L27.6249 1.77065C24.0959 -0.701882 18.6788 -0.567017 15.2847 2.06285L4.02348 10.8516C1.77572 12.6048 0 16.2012 0 19.0334V34.5429C0 40.2746 4.65285 44.95 10.3846 44.95H34.6154C40.3472 44.95 45 40.2971 45 34.5653V19.3256C45 16.2911 43.0445 12.5599 40.5719 10.8291ZM24.1858 35.959C24.1858 36.8805 23.4216 37.6448 22.5 37.6448C21.5784 37.6448 20.8142 36.8805 20.8142 35.959V29.2157C20.8142 28.2941 21.5784 27.5299 22.5 27.5299C23.4216 27.5299 24.1858 28.2941 24.1858 29.2157V35.959Z" fill="black"/>
</svg>
