<svg xmlns="http://www.w3.org/2000/svg" width="512" height="512" viewBox="0 0 512 512">
  <g>
    <path d="M240,0h32a28.4,28.4,0,0,0,3.849.817c39.863,2.98,77.178,14.422,111.177,35.354,66.083,40.684,106.787,99.2,121.046,175.714,1.732,9.293,2.639,18.74,3.928,28.115v32c-.411,3.281-.869,6.558-1.224,9.845-5.48,50.636-23.829,96.058-56.146,135.442-40.187,48.975-91.6,79.386-154.045,90.748C291.129,509.756,281.532,510.7,272,512H240c-6.249-.769-12.512-1.436-18.743-2.323-47.226-6.717-89.651-24.715-126.521-55.031C45.8,414.407,15.321,363.065,3.979,300.607,2.26,291.143,1.307,281.539,0,272V240c.4-3.279.849-6.554,1.208-9.838,5.921-54.229,26.428-102.18,62.6-143.061C103.588,42.148,153.133,14.2,212.394,3.862,221.542,2.267,230.8,1.272,240,0Zm16.473,108.242-.028,1.777c-21.158,0-42.325-.384-63.471.121-17.043.408-33.367,4.4-47.762,14.077-24.051,16.164-34.376,40.048-34.936,67.85-.86,42.633-.54,85.3-.061,127.943.188,16.676,4.5,32.669,13.995,46.765,16.184,24.035,40.062,34.371,67.855,34.94,42.631.873,85.3.747,127.94.021,23.367-.4,44.466-8.1,60.75-26,14.652-16.1,20.615-35.688,21.092-56.836.789-34.98.859-69.978.9-104.969a308.892,308.892,0,0,0-1.781-30.919c-3.964-39.728-32.343-68.545-72.113-71.851C304.809,109.163,280.6,109.148,256.473,108.242Z"/>
    <path d="M256.009,376.967c-22.141-.628-44.316-.691-66.415-2.021-31.421-1.89-51.524-21.1-52.375-52.611-1.2-44.592-.848-89.255.039-133.863.384-19.323,9.187-35.328,27.122-44.815,10.082-5.333,21.172-7.277,32.365-7.287,41.966-.039,83.96-.493,125.891.836,31.093.985,51.3,21.071,52.128,52.185q1.77,66.642-.007,133.362c-.809,30.748-21.193,50.036-51.808,52.233-11.123.8-22.291,1.082-33.445,1.3s-22.322.047-33.484.047Zm75.418-121.085a75.434,75.434,0,1,0-75.567,75.545A75.306,75.306,0,0,0,331.427,255.882Zm20.616-78.328a17.565,17.565,0,1,0-17.859,17.518A17.494,17.494,0,0,0,352.043,177.554Z"/>
    <path d="M255.937,207.012a48.987,48.987,0,1,1-48.922,48.925A49.05,49.05,0,0,1,255.937,207.012Z"/>
  </g>
</svg>
