<svg xmlns="http://www.w3.org/2000/svg" width="513" height="513" viewBox="0 0 513 513">
  <path d="M241,1h32a28.4,28.4,0,0,0,3.849.817c39.863,2.98,77.179,14.422,111.178,35.354,66.082,40.685,106.787,99.2,121.045,175.715C510.8,222.178,511.711,231.625,513,241v32c-.411,3.282-.869,6.559-1.225,9.847-5.482,50.634-23.827,96.058-56.145,135.441-40.188,48.973-91.6,79.385-154.045,90.747C292.129,510.756,282.532,511.7,273,513H241c-6.249-.769-12.512-1.436-18.743-2.323-47.226-6.717-89.651-24.714-126.521-55.031C46.8,415.407,16.321,364.065,4.979,301.607,3.261,292.143,2.307,282.539,1,273V241c.405-3.28.851-6.555,1.209-9.84,5.92-54.229,26.428-102.179,62.6-143.06,39.777-44.952,89.322-72.9,148.582-83.238C222.542,3.267,231.8,2.272,241,1Zm38.423,386.822c0-16.107-.046-31.75.011-47.392.077-21.156-.021-42.317.455-63.464.259-11.477,6.348-20.252,15.664-26.487,18.054-12.084,40.849-3.991,46.708,16.828a83.613,83.613,0,0,1,2.664,21.684c.279,31.154.12,62.311.12,93.467v5.213h62.111c.08-1.638.2-2.955.2-4.272.008-34.155.076-68.31-.059-102.465a179.224,179.224,0,0,0-1.327-20.418c-4.362-36.732-26.339-59.92-61.717-63.958-25.479-2.908-47.045,4.826-62.236,26.683a34.579,34.579,0,0,1-2.6,2.792c0-7.724-.188-14.342.074-20.943.146-3.695-.982-4.878-4.769-4.838-17.825.185-35.654.074-53.481.1a37.159,37.159,0,0,0-3.812.383V387.822Zm-97,.042c.11-1.275.24-2.081.24-2.886q.017-90.235.09-180.471c.007-3.881-1.744-4.235-4.845-4.219-17.663.093-35.327.037-52.991.06-1.446,0-2.892.215-4.352.331V387.864Zm-65.746-245.41c.02,18.987,14.558,32.515,34.836,32.413,20.427-.1,35.266-13.672,35.247-32.231-.02-18.952-14.553-32.591-34.767-32.627C131.2,109.972,116.655,123.333,116.675,142.454Z"/>
</svg>
