<svg width="35" height="47" viewBox="0 0 35 47" fill="none" xmlns="http://www.w3.org/2000/svg">
<g clip-path="url(#clip0_23_2776)">
<path d="M3.52682 46.053C3.06122 46.0622 2.59855 45.9774 2.16656 45.8034C1.73458 45.6295 1.34213 45.3701 1.01284 45.0408C0.68355 44.7115 0.424187 44.3191 0.250253 43.8871C0.0763186 43.4551 -0.008556 42.9925 0.000680479 42.5269V4.1314C-0.008556 3.66581 0.0763186 3.20313 0.250253 2.77115C0.424187 2.33916 0.68355 1.94675 1.01284 1.61746C1.34213 1.28817 1.73458 1.02877 2.16656 0.854837C2.59855 0.680902 3.06122 0.596028 3.52682 0.605264H23.6988C24.4123 0.603772 25.0972 0.885621 25.6029 1.38885L34.2589 10.0435C34.4942 10.279 34.6809 10.5586 34.8082 10.8663C34.9354 11.1739 35.0008 11.5037 35.0007 11.8366V42.5269C35.0099 42.9925 34.925 43.4551 34.7511 43.8871C34.5772 44.3191 34.3177 44.7115 33.9884 45.0408C33.6591 45.3701 33.2668 45.6295 32.8348 45.8034C32.4028 45.9774 31.9401 46.0622 31.4745 46.053H3.52682ZM24.8585 11.4448H31.7135C31.8651 11.4454 32.0134 11.4008 32.1395 11.3167C32.2656 11.2326 32.3638 11.1128 32.4215 10.9727C32.4792 10.8325 32.4939 10.6784 32.4637 10.5298C32.4334 10.3813 32.3596 10.2452 32.2516 10.1388L25.3953 3.32952C25.2887 3.22131 25.1521 3.14739 25.0033 3.11725C24.8544 3.08711 24.6999 3.10211 24.5596 3.16033C24.4193 3.21856 24.2996 3.31736 24.2158 3.44406C24.132 3.57076 24.088 3.71961 24.0893 3.8715V10.6795C24.089 10.7804 24.1086 10.8805 24.1472 10.9737C24.1858 11.067 24.2425 11.1517 24.314 11.2228C24.3856 11.294 24.4705 11.3503 24.564 11.3884C24.6574 11.4265 24.7576 11.4457 24.8585 11.4448Z" fill="black"/>
<path d="M7.20898 38.917L13.8042 30.1017L20.5952 38.3947L24.7743 33.4319L29.084 38.917H7.20898ZM8.12318 20.5159C7.88829 20.2873 7.70335 20.0125 7.57996 19.7088C7.45656 19.4051 7.39736 19.0792 7.40619 18.7515C7.39785 18.4232 7.45605 18.0966 7.57725 17.7914C7.69844 17.4862 7.88018 17.2086 8.11146 16.9754C8.34009 16.7406 8.61486 16.5556 8.91853 16.4322C9.22219 16.3088 9.54818 16.2496 9.87584 16.2584C10.2041 16.2503 10.5307 16.3085 10.8359 16.4297C11.1411 16.5509 11.4187 16.7325 11.6519 16.9637C11.8868 17.1923 12.0718 17.4671 12.1952 17.7708C12.3186 18.0745 12.3778 18.4004 12.3689 18.728C12.3773 19.0563 12.3191 19.383 12.1979 19.6882C12.0767 19.9934 11.8949 20.271 11.6637 20.5042C11.435 20.739 11.1603 20.924 10.8566 21.0474C10.5529 21.1708 10.2269 21.23 9.89928 21.2212C9.57077 21.2295 9.24399 21.1713 8.93853 21.0501C8.63308 20.9289 8.35659 20.7472 8.12318 20.5159Z" fill="white"/>
</g>
<defs>
<clipPath id="clip0_23_2776">
<rect width="35" height="45.4478" fill="white" transform="translate(0 0.605103)"/>
</clipPath>
</defs>
</svg>
