<svg width="50" height="50" viewBox="0 0 50 50" fill="none" xmlns="http://www.w3.org/2000/svg">
<path d="M19.7941 44.3182C15.2555 42.803 11.5179 40.0947 8.58124 36.1932C5.64455 32.2917 4.1762 27.803 4.1762 22.7273C4.1762 21.5152 4.27155 20.303 4.46224 19.0909C4.65294 17.8788 4.95805 16.6856 5.37757 15.5114L1.71625 17.6136L0 14.7159L9.89703 9.03409L15.6178 18.8068L12.643 20.5114L9.32494 14.8864C8.791 16.1364 8.38101 17.4242 8.09496 18.75C7.80892 20.0758 7.6659 21.4205 7.6659 22.7841C7.6659 27.178 8.97216 31.0606 11.5847 34.4318C14.1972 37.803 17.5248 40.0947 21.5675 41.3068L19.7941 44.3182ZM36.27 14.7727V11.3636H42.849C41.0183 8.86364 38.7204 6.91288 35.9554 5.51136C33.1903 4.10985 30.2441 3.40909 27.1167 3.40909C24.4851 3.40909 22.0347 3.88258 19.7654 4.82955C17.4962 5.77652 15.4844 7.08333 13.73 8.75L11.9565 5.68182C14.016 3.90152 16.3234 2.50947 18.8787 1.50568C21.434 0.501894 24.1609 0 27.0595 0C30.4157 0 33.5812 0.672349 36.5561 2.01705C39.5309 3.36174 42.1053 5.26515 44.2792 7.72727V3.40909H47.7117V14.7727H36.27ZM33.6957 50L23.7986 44.3182L29.5194 34.5455L32.4371 36.25L29.119 41.9886C34.077 41.4962 38.2246 39.4223 41.5618 35.767C44.8989 32.1117 46.5675 27.7841 46.5675 22.7841C46.5675 21.9886 46.5198 21.2121 46.4245 20.4545C46.3291 19.697 46.1861 18.9394 45.9954 18.1818H49.5423C49.6949 18.9394 49.8093 19.697 49.8856 20.4545C49.9619 21.2121 50 21.9697 50 22.7273C50 28.1439 48.2933 32.9356 44.8799 37.1023C41.4664 41.2689 37.1091 43.9015 31.8078 45L35.4119 47.1023L33.6957 50Z" fill="#67BFFF"/>
</svg>
