<svg xmlns="http://www.w3.org/2000/svg" width="383.17" height="384" viewBox="0 0 383.17 384">
  <path d="M383.17,180v24c-.307,2.462-.649,4.919-.915,7.385-4.105,37.976-17.837,72.043-42.028,101.58-30.082,36.731-68.567,59.54-115.309,68.061-7.078,1.291-14.262,2-21.4,2.974H179.568c-4.679-.577-9.372-1.065-14.036-1.745-44.923-6.547-83.314-26.042-114.058-59.514C10.725,278.376-5.707,225.755,1.74,166.038,6.52,127.714,22.271,93.96,47.889,65.08,77.656,31.524,114.654,10.621,158.9,2.9,165.747,1.7,172.675.955,179.568,0h23.953A21.277,21.277,0,0,0,206.4.613c29.839,2.235,57.771,10.816,83.221,26.516,49.465,30.513,79.934,74.4,90.607,131.785C381.526,165.884,382.205,172.969,383.17,180ZM196.555,82.562v5.224q-.03,71.231-.07,142.462c0,2.121-.048,4.252-.244,6.363a32.384,32.384,0,0,1-64.422,1.009,31.86,31.86,0,0,1,24.791-35.115c5.547-1.16,11.538-.184,17.377-.184V165.715c-7.766.48-15.307.226-22.574,1.516-37.881,6.728-62.748,43.652-54.556,80.48,8.487,38.161,46.684,61.64,84.154,51.728,31.051-8.215,51.462-34.585,51.482-66.755.017-24.618-.158-49.236-.248-73.854,0-1.322,0-2.644,0-3.393,8.861,4.26,17.369,8.871,26.278,12.49a70.588,70.588,0,0,0,28.785,4.777V137.346c-15.112-.582-28.034-5.661-38.646-16.156-10.7-10.578-15.885-23.612-16.558-38.628Z"/>
</svg>
