<svg width="50" height="51" viewBox="0 0 50 51" fill="none" xmlns="http://www.w3.org/2000/svg">
<path d="M34.1875 37.8037L37 34.935L27.0625 24.735V11.9212H23.3125V26.265L34.1875 37.8037ZM25 51C21.5833 51 18.3542 50.3306 15.3125 48.9919C12.2708 47.6531 9.61458 45.8256 7.34375 43.5094C5.07292 41.1931 3.28125 38.4837 1.96875 35.3812C0.65625 32.2787 0 28.985 0 25.5C0 22.015 0.65625 18.7213 1.96875 15.6187C3.28125 12.5162 5.07292 9.80687 7.34375 7.49062C9.61458 5.17438 12.2708 3.34687 15.3125 2.00813C18.3542 0.669375 21.5833 0 25 0C28.4167 0 31.6458 0.669375 34.6875 2.00813C37.7292 3.34687 40.3854 5.17438 42.6562 7.49062C44.9271 9.80687 46.7188 12.5162 48.0312 15.6187C49.3438 18.7213 50 22.015 50 25.5C50 28.985 49.3438 32.2787 48.0312 35.3812C46.7188 38.4837 44.9271 41.1931 42.6562 43.5094C40.3854 45.8256 37.7292 47.6531 34.6875 48.9919C31.6458 50.3306 28.4167 51 25 51Z" fill="#67BFFF"/>
</svg>
