<svg xmlns="http://www.w3.org/2000/svg" width="382.978" height="384" viewBox="0 0 382.978 384">
  <path d="M183.118,0h16.468c1.461.269,2.913.618,4.386.793,6.546.776,13.141,1.237,19.643,2.286C298.309,15.124,360.522,73.56,377.469,148.005c2.723,11.962,3.716,24.32,5.509,36.5v15c-.281,1.949-.6,3.894-.838,5.849-.88,7.173-1.322,14.429-2.666,21.513q-12.759,67.227-64.836,111.631a185.515,185.515,0,0,1-95.806,43.161c-6.641.946-13.328,1.572-19.994,2.346H183.867c-1.842-.277-3.678-.6-5.526-.823-7.289-.9-14.666-1.328-21.861-2.715C108.428,371.2,69.1,347.26,39.444,308.319,6.38,264.907-5.669,215.678,2.439,161.775c5.589-37.157,21.354-69.83,46.5-97.7C79.755,29.935,117.98,9.257,163.5,2.381,170.008,1.4,176.576.784,183.118,0ZM145.039,237.687c-2.226,1.418-3.508,2.332-4.876,3.091-12.424,6.891-25.846,9.515-39.931,9.612-1.579.011-3.146,1.69-4.719,2.6a34.512,34.512,0,0,0,2.836,4.351,9.563,9.563,0,0,0,2.9,1.668,113.5,113.5,0,0,0,62.161,12.758c28.976-2.237,53.83-13.353,73.548-34.863,19.63-21.415,30.1-46.836,30.945-76.015a14.393,14.393,0,0,1,5.114-11.02c4.735-4.37,8.792-9.5,12.928-14.478.748-.9.48-2.649.681-4.006-1.373-.081-2.841-.513-4.1-.173-2.986.806-5.874,1.977-9.151,3.123,2.821-5,5.432-9.227,7.585-13.677.684-1.413.151-3.418.174-5.152a23.84,23.84,0,0,0-4.79.841c-4.864,1.906-9.67,3.969-14.452,6.075-3.86,1.7-6.877.778-10.273-1.746-14.14-10.51-29.535-11.846-45.05-3.808-15.468,8.013-22.172,21.668-21.691,38.9.086,3.082-.828,4.227-3.8,3.68-4.654-.858-9.365-1.491-13.944-2.648A106.622,106.622,0,0,1,111.159,122c-3.431-4-4.85-3.846-7.146.915a41.505,41.505,0,0,0-3.587,25.532c1.32,7.843,4.883,14.583,9.669,20.959a44.821,44.821,0,0,1-4.556-1.31c-1.594-.436-4.316-1.376-4.667-.846a8.962,8.962,0,0,0-1.265,5.43q1.954,21.174,20.03,32.512c.485.3.916.692,2.209,1.681-2.082-.239-3.147-.351-4.209-.484-3.895-.486-5.22,1.025-3.732,4.728a48.4,48.4,0,0,0,4.406,8.644C124.436,229.028,133.174,234.685,145.039,237.687Z"/>
</svg>
