<svg width="45" height="35" viewBox="0 0 45 35" fill="none" xmlns="http://www.w3.org/2000/svg">
<g clip-path="url(#clip0_23_2798)">
<path d="M3.49205 0.0530113L6.85412 6.90646H14.8067L11.4446 0.0530113H16.811L20.1731 6.90646H28.1257L24.7636 0.0530113H30.0653L33.4921 6.90646H41.4446L38.0179 0.0530113H41.5093C41.9703 0.0438658 42.4284 0.127924 42.8561 0.300144C43.2839 0.472365 43.6724 0.729199 43.9984 1.05524C44.3245 1.38129 44.5813 1.76983 44.7535 2.19755C44.9258 2.62528 45.0098 3.08338 45.0007 3.54439V31.2168C45.0098 31.6778 44.9258 32.1359 44.7535 32.5636C44.5813 32.9914 44.3245 33.3799 43.9984 33.7059C43.6724 34.032 43.2839 34.2888 42.8561 34.4611C42.4284 34.6333 41.9703 34.7173 41.5093 34.7082H3.49205C3.03105 34.7173 2.57294 34.6333 2.14522 34.4611C1.71749 34.2888 1.32895 34.032 1.00291 33.7059C0.676863 33.3799 0.420027 32.9914 0.247807 32.5636C0.0755863 32.1359 -0.00847184 31.6778 0.000673637 31.2168V3.54439C-0.00847184 3.08338 0.0755863 2.62528 0.247807 2.19755C0.420027 1.76983 0.676863 1.38129 1.00291 1.05524C1.32895 0.729199 1.71749 0.472365 2.14522 0.300144C2.57294 0.127924 3.03105 0.0438658 3.49205 0.0530113Z" fill="black"/>
</g>
<defs>
<clipPath id="clip0_23_2798">
<rect width="45" height="34.6552" fill="white" transform="translate(0 0.0528564)"/>
</clipPath>
</defs>
</svg>
